 <svg  version="1.0" xmlns="http://www.w3.org/2000/svg"  width="200.000000pt" height="200.000000pt" viewBox="0 0 200.000000 200.000000"  preserveAspectRatio="xMidYMid meet">  <g transform="translate(0.000000,200.000000) scale(0.100000,-0.100000)" fill="#17f9fd" stroke="none"> <path d="M1650 1593 c0 -5 -48 -7 -106 -5 -58 2 -104 0 -101 -5 3 -4 -70 -9 -162 -10 -296 -4 -362 -5 -601 -15 -245 -9 -280 -16 -280 -56 0 -15 2 -15 11 -2 8 11 9 5 5 -25 -3 -23 -2 -34 3 -27 12 19 34 -40 27 -70 -3 -13 -3 -16 1 -9 7 17 36 -80 36 -121 0 -18 4 -25 13 -21 18 7 20 -2 -24 160 l-38 140 130 6 c72 2 225 6 341 7 178 2 732 16 788 20 20 1 13 20 -9 20 -8 0 -14 5 -14 10 0 6 -4 10 -10 10 -5 0 -10 -3 -10 -7z"/> <path d="M1689 1540 c-9 -5 -70 -69 -136 -142 -363 -401 -443 -493 -439 -504 3 -8 0 -11 -8 -8 -7 3 -16 41 -23 101 l-10 96 90 116 c49 64 101 128 115 144 14 15 22 27 16 27 -5 0 -144 0 -308 0 l-299 -1 -41 -46 c-23 -26 -60 -67 -83 -91 -31 -31 -37 -41 -21 -36 11 3 54 40 95 82 l73 75 243 -7 c144 -5 247 -12 255 -18 9 -8 11 -6 6 8 -4 15 -4 16 4 5 11 -15 5 -44 -7 -37 -4 3 -15 -10 -25 -29 -11 -21 -24 -31 -32 -28 -9 3 -14 -2 -14 -17 0 -11 -4 -19 -9 -16 -5 3 -11 -3 -14 -14 -3 -11 -12 -20 -21 -20 -9 0 -16 -6 -16 -14 0 -8 -5 -18 -11 -22 -8 -4 -9 0 -4 15 3 11 2 21 -3 21 -9 0 -23 31 -26 55 -1 13 -28 41 -34 37 -3 -2 -9 2 -13 10 -6 9 -9 10 -9 1 0 -7 -6 -10 -14 -7 -8 3 -17 1 -21 -5 -3 -6 -13 -11 -21 -11 -9 0 -12 5 -8 12 4 7 3 8 -5 4 -6 -4 -9 -11 -6 -16 3 -5 -9 -19 -27 -31 -18 -13 -37 -29 -41 -36 -4 -7 -20 -13 -35 -13 -19 0 -23 -3 -13 -9 18 -11 -2 -23 -25 -14 -13 5 -16 3 -11 -10 4 -11 2 -14 -7 -11 -7 3 -16 -2 -20 -11 -4 -10 -12 -15 -22 -11 -10 4 -13 2 -8 -6 5 -7 0 -9 -14 -6 -12 4 -20 3 -17 -1 8 -14 -65 -70 -101 -77 -19 -3 -34 -10 -34 -15 0 -5 11 -4 25 1 34 13 32 4 -4 -15 -17 -8 -36 -12 -44 -9 -9 3 -16 -3 -20 -17 -4 -15 -11 -20 -22 -15 -9 3 -13 2 -10 -4 3 -6 1 -10 -5 -10 -6 0 -30 -18 -54 -40 -41 -38 -64 -52 -51 -30 3 5 0 7 -9 4 -8 -3 -12 -12 -9 -20 4 -10 -2 -17 -16 -21 -11 -3 -21 -11 -21 -18 0 -15 32 -45 49 -45 7 0 9 -4 6 -10 -4 -6 7 -8 27 -4 26 5 30 3 18 -6 -12 -9 -9 -11 17 -8 18 3 30 1 27 -4 -3 -4 8 -10 23 -13 15 -3 46 -11 68 -17 22 -7 44 -11 49 -9 8 2 76 -16 151 -41 45 -14 125 -35 168 -42 20 -4 37 -11 37 -15 0 -5 9 -11 20 -14 13 -3 18 -1 13 6 -4 7 0 8 11 4 10 -4 23 -7 29 -7 7 0 6 -4 -3 -10 -11 -7 -7 -10 18 -10 18 0 65 -9 104 -20 40 -11 83 -20 96 -20 13 0 20 -4 17 -10 -7 -11 -7 -11 58 -16 27 -2 54 -7 60 -13 7 -5 29 -12 50 -16 20 -4 37 -10 37 -14 0 -3 18 -6 40 -6 66 0 69 8 70 198 1 93 -1 171 -3 174 -10 9 -16 -58 -21 -212 -3 -82 -5 -150 -5 -151 -1 0 -40 12 -88 27 -49 14 -115 34 -148 43 -33 9 -132 36 -220 60 -566 156 -662 182 -738 200 -16 4 -25 11 -21 17 3 6 8 8 11 5 3 -2 155 96 338 219 l333 223 22 -57 21 -58 -73 -70 c-103 -99 -194 -183 -214 -198 -15 -10 -10 -13 32 -24 27 -6 85 -23 129 -36 70 -21 206 -62 369 -110 40 -11 52 -12 70 -1 118 73 156 100 147 109 -6 6 -16 5 -28 -2 -10 -6 -13 -11 -8 -11 6 0 -9 -12 -33 -26 -23 -14 -46 -22 -52 -19 -6 4 -7 -1 -3 -12 3 -10 3 -15 -2 -11 -4 4 -16 3 -27 -3 -14 -8 -33 -6 -71 8 -29 10 -59 18 -67 18 -33 1 -82 18 -72 24 6 4 -10 8 -35 9 -26 1 -49 6 -52 10 -3 5 -30 15 -58 22 -29 8 -53 18 -53 23 0 5 -15 6 -32 3 -25 -5 -28 -4 -13 3 19 9 18 10 -5 11 -14 0 -36 7 -49 14 l-24 13 22 15 c11 8 18 18 13 23 -4 4 2 5 14 1 17 -5 20 -2 20 21 -1 30 19 37 59 20 20 -8 20 -8 1 7 -18 15 -17 17 24 53 43 38 80 48 88 24 3 -8 1 -11 -4 -8 -12 7 -5 -75 7 -87 12 -13 12 -29 0 -22 -5 4 -7 -3 -4 -15 4 -13 8 -17 13 -9 5 8 9 5 13 -9 7 -29 34 -37 56 -17 10 9 22 16 27 16 5 0 2 -5 -6 -11 -13 -9 -13 -10 0 -6 8 2 14 12 14 21 -2 19 7 21 26 4 12 -11 12 -10 1 5 -18 23 1 47 38 48 18 1 21 3 8 6 -18 4 -17 6 3 20 12 8 19 21 16 29 -3 8 1 14 10 14 8 0 24 16 36 37 12 20 24 31 26 25 2 -7 8 -9 14 -6 6 4 5 10 -3 15 -11 7 -9 12 9 24 12 9 22 21 22 26 0 6 7 17 15 25 8 9 15 12 15 7 0 -5 -5 -14 -12 -21 -7 -7 -8 -12 -2 -12 5 0 18 15 28 33 27 45 83 107 91 99 4 -4 5 -2 3 4 -5 16 56 81 71 76 9 -3 11 0 6 7 -4 7 14 35 47 70 58 63 88 99 88 106 0 8 -13 5 -31 -5z"/> </g> </svg> 