<svg xmlns="http://www.w3.org/2000/svg" fill="none" viewBox="0 0 75 42"><path fill="url(#android_svg__a)" d="M54.565 31.378a3.108 3.108 0 0 1-3.104-3.105 3.107 3.107 0 0 1 3.104-3.104 3.107 3.107 0 0 1 3.104 3.104 3.108 3.108 0 0 1-3.104 3.105Zm-34.31 0a3.108 3.108 0 0 1-3.104-3.105 3.107 3.107 0 0 1 3.104-3.104 3.107 3.107 0 0 1 3.104 3.104 3.108 3.108 0 0 1-3.104 3.105ZM55.678 12.68l6.204-10.744A1.292 1.292 0 0 0 61.41.173a1.292 1.292 0 0 0-1.764.472l-6.281 10.88C48.561 9.334 43.166 8.113 37.41 8.113c-5.757 0-11.152 1.221-15.955 3.414L15.173.646a1.291 1.291 0 0 0-2.236 1.29l6.205 10.744C8.489 18.474 1.203 29.26.137 42h74.546c-1.067-12.741-8.353-23.526-19.005-29.32Z"/><g clip-path="url(#android_svg__b)" filter="url(#android_svg__c)"><path fill="url(#android_svg__a)" d="M54.565 31.378a3.108 3.108 0 0 1-3.104-3.105 3.107 3.107 0 0 1 3.104-3.104 3.107 3.107 0 0 1 3.104 3.104 3.108 3.108 0 0 1-3.104 3.105Zm-34.31 0a3.108 3.108 0 0 1-3.104-3.105 3.107 3.107 0 0 1 3.104-3.104 3.107 3.107 0 0 1 3.104 3.104 3.108 3.108 0 0 1-3.104 3.105ZM55.678 12.68l6.204-10.744A1.292 1.292 0 0 0 61.41.173a1.292 1.292 0 0 0-1.764.472l-6.281 10.88C48.561 9.334 43.166 8.113 37.41 8.113c-5.757 0-11.152 1.221-15.955 3.414L15.173.646a1.291 1.291 0 0 0-2.236 1.29l6.205 10.744C8.489 18.474 1.203 29.26.137 42h74.546c-1.067-12.741-8.353-23.526-19.005-29.32Z"/></g><defs><linearGradient id="android_svg__a" x1="37.41" x2="37.41" y1="0" y2="42" gradientUnits="userSpaceOnUse"><stop stop-color="azure"/><stop offset=".453" stop-color="#C8E0FF"/><stop offset="1" stop-color="#7880AA"/></linearGradient><clipPath id="android_svg__b"><path d="M54.565 31.378a3.108 3.108 0 0 1-3.104-3.105 3.107 3.107 0 0 1 3.104-3.104 3.107 3.107 0 0 1 3.104 3.104 3.108 3.108 0 0 1-3.104 3.105Zm-34.31 0a3.108 3.108 0 0 1-3.104-3.105 3.107 3.107 0 0 1 3.104-3.104 3.107 3.107 0 0 1 3.104 3.104 3.108 3.108 0 0 1-3.104 3.105ZM55.678 12.68l6.204-10.744A1.292 1.292 0 0 0 61.41.173a1.292 1.292 0 0 0-1.764.472l-6.281 10.88C48.561 9.334 43.166 8.113 37.41 8.113c-5.757 0-11.152 1.221-15.955 3.414L15.173.646a1.291 1.291 0 0 0-2.236 1.29l6.205 10.744C8.489 18.474 1.203 29.26.137 42h74.546c-1.067-12.741-8.353-23.526-19.005-29.32Z"/></clipPath><filter id="android_svg__c"><feTurbulence baseFrequency="1" type="fractalNoise"/><feColorMatrix in="colorNoise" values=".33 .33 .33 0 0 .33 .33 .33 0 0 .33 .33 .33 0 0 0 0 0 1 0"/><feComposite in2="SourceGraphic" operator="in" result="monoNoise"/><feBlend in="SourceGraphic" in2="monoNoise" mode="multiply"/></filter></defs></svg>