<svg xmlns="http://www.w3.org/2000/svg" fill="none" viewBox="0 0 74 53"><path fill="url(#docker_svg__a)" d="M63.942 19.785c-.387-2.813-1.937-5.256-4.733-7.463l-1.617-1.095-1.078 1.634c-1.382 2.106-2.072 5.037-1.853 7.85.1.977.42 2.763 1.415 4.296-.994.555-2.965 1.297-5.593 1.246H.286l-.101.59c-.472 2.813-.472 11.623 5.171 18.377 4.295 5.138 10.713 7.749 19.102 7.749 18.192 0 31.635-8.473 37.951-23.903 2.476.05 7.816.017 10.562-5.29.067-.117.236-.437.707-1.448l.27-.556-1.533-1.044c-1.684-1.095-5.508-1.516-8.473-.943ZM40.427.969h-7.63v7.024h7.63V.97Zm0 8.44h-7.63v7.024h7.63V9.408Zm-9.029 0h-7.63v7.024h7.63V9.408Zm-9.012 0h-7.63v7.024h7.63V9.408Zm-9.029 8.438h-7.63v7.025h7.63v-7.024Zm9.03 0h-7.632v7.025h7.631v-7.024Zm9.011 0h-7.63v7.025h7.63v-7.024Zm9.029 0h-7.63v7.025h7.63v-7.024Zm9.029 0h-7.631v7.025h7.63v-7.024Z"/><g clip-path="url(#docker_svg__b)" filter="url(#docker_svg__c)"><path fill="url(#docker_svg__a)" d="M63.942 19.785c-.387-2.813-1.937-5.256-4.733-7.463l-1.617-1.095-1.078 1.634c-1.382 2.106-2.072 5.037-1.853 7.85.1.977.42 2.763 1.415 4.296-.994.555-2.965 1.297-5.593 1.246H.286l-.101.59c-.472 2.813-.472 11.623 5.171 18.377 4.295 5.138 10.713 7.749 19.102 7.749 18.192 0 31.635-8.473 37.951-23.903 2.476.05 7.816.017 10.562-5.29.067-.117.236-.437.707-1.448l.27-.556-1.533-1.044c-1.684-1.095-5.508-1.516-8.473-.943ZM40.427.969h-7.63v7.024h7.63V.97Zm0 8.44h-7.63v7.024h7.63V9.408Zm-9.029 0h-7.63v7.024h7.63V9.408Zm-9.012 0h-7.63v7.024h7.63V9.408Zm-9.029 8.438h-7.63v7.025h7.63v-7.024Zm9.03 0h-7.632v7.025h7.631v-7.024Zm9.011 0h-7.63v7.025h7.63v-7.024Zm9.029 0h-7.63v7.025h7.63v-7.024Zm9.029 0h-7.631v7.025h7.63v-7.024Z"/></g><defs><linearGradient id="docker_svg__a" x1="36.972" x2="36.972" y1=".969" y2="52.969" gradientUnits="userSpaceOnUse"><stop stop-color="azure"/><stop offset=".453" stop-color="#C8E0FF"/><stop offset="1" stop-color="#7880AA"/></linearGradient><clipPath id="docker_svg__b"><path d="M63.942 19.785c-.387-2.813-1.937-5.256-4.733-7.463l-1.617-1.095-1.078 1.634c-1.382 2.106-2.072 5.037-1.853 7.85.1.977.42 2.763 1.415 4.296-.994.555-2.965 1.297-5.593 1.246H.286l-.101.59c-.472 2.813-.472 11.623 5.171 18.377 4.295 5.138 10.713 7.749 19.102 7.749 18.192 0 31.635-8.473 37.951-23.903 2.476.05 7.816.017 10.562-5.29.067-.117.236-.437.707-1.448l.27-.556-1.533-1.044c-1.684-1.095-5.508-1.516-8.473-.943ZM40.427.969h-7.63v7.024h7.63V.97Zm0 8.44h-7.63v7.024h7.63V9.408Zm-9.029 0h-7.63v7.024h7.63V9.408Zm-9.012 0h-7.63v7.024h7.63V9.408Zm-9.029 8.438h-7.63v7.025h7.63v-7.024Zm9.03 0h-7.632v7.025h7.631v-7.024Zm9.011 0h-7.63v7.025h7.63v-7.024Zm9.029 0h-7.63v7.025h7.63v-7.024Zm9.029 0h-7.631v7.025h7.63v-7.024Z"/></clipPath><filter id="docker_svg__c"><feTurbulence baseFrequency="1" type="fractalNoise"/><feColorMatrix in="colorNoise" values=".33 .33 .33 0 0 .33 .33 .33 0 0 .33 .33 .33 0 0 0 0 0 1 0"/><feComposite in2="SourceGraphic" operator="in" result="monoNoise"/><feBlend in="SourceGraphic" in2="monoNoise" mode="multiply"/></filter></defs></svg>