<svg xmlns="http://www.w3.org/2000/svg" fill="none" viewBox="0 0 52 58"><path fill="url(#nodejs_svg__a)" d="M25.733 58c-.8 0-1.545-.213-2.238-.586l-7.087-4.21c-1.066-.586-.533-.799-.213-.905 1.438-.48 1.705-.587 3.197-1.44.16-.106.373-.052.533.054l5.435 3.25c.213.107.48.107.64 0l21.26-12.308c.213-.107.32-.32.32-.586V16.705c0-.267-.107-.48-.32-.586L26 3.863c-.214-.106-.48-.106-.64 0L4.099 16.12c-.213.106-.32.373-.32.586v24.564c0 .213.107.48.32.586l5.808 3.357c3.144 1.598 5.115-.267 5.115-2.132V18.836c0-.32.267-.64.64-.64h2.717c.32 0 .64.267.64.64V43.08c0 4.21-2.291 6.66-6.288 6.66-1.225 0-2.185 0-4.902-1.331l-5.595-3.197a4.497 4.497 0 0 1-2.238-3.89V16.758c0-1.599.853-3.09 2.238-3.89L23.494.56c1.333-.745 3.145-.745 4.477 0l21.26 12.31a4.497 4.497 0 0 1 2.238 3.889v24.564c0 1.599-.852 3.09-2.238 3.89L27.971 57.52c-.693.32-1.492.48-2.238.48Zm6.554-16.891c-9.325 0-11.243-4.263-11.243-7.886 0-.32.266-.64.64-.64h2.77c.32 0 .586.213.586.533.426 2.824 1.652 4.21 7.3 4.21 4.476 0 6.394-1.013 6.394-3.41 0-1.386-.533-2.398-7.513-3.091-5.808-.586-9.431-1.865-9.431-6.5 0-4.317 3.623-6.874 9.697-6.874 6.821 0 10.178 2.344 10.604 7.46a.86.86 0 0 1-.16.479c-.106.107-.266.213-.426.213h-2.77a.624.624 0 0 1-.587-.48c-.64-2.93-2.291-3.89-6.66-3.89-4.903 0-5.489 1.706-5.489 2.985 0 1.545.693 2.024 7.3 2.877 6.554.853 9.645 2.078 9.645 6.66-.053 4.69-3.89 7.354-10.657 7.354Z"/><g clip-path="url(#nodejs_svg__b)" filter="url(#nodejs_svg__c)"><path fill="url(#nodejs_svg__a)" d="M0 0h52v58H0V0"/></g><defs><linearGradient id="nodejs_svg__a" x1="25.733" x2="25.733" y1="0" y2="58" gradientUnits="userSpaceOnUse"><stop stop-color="azure"/><stop offset=".453" stop-color="#C8E0FF"/><stop offset="1" stop-color="#7880AA"/></linearGradient><clipPath id="nodejs_svg__b"><path d="M25.733 58c-.8 0-1.545-.213-2.238-.586l-7.087-4.21c-1.066-.586-.533-.799-.213-.905 1.438-.48 1.705-.587 3.197-1.44.16-.106.373-.052.533.054l5.435 3.25c.213.107.48.107.64 0l21.26-12.308c.213-.107.32-.32.32-.586V16.705c0-.267-.107-.48-.32-.586L26 3.863c-.214-.106-.48-.106-.64 0L4.099 16.12c-.213.106-.32.373-.32.586v24.564c0 .213.107.48.32.586l5.808 3.357c3.144 1.598 5.115-.267 5.115-2.132V18.836c0-.32.267-.64.64-.64h2.717c.32 0 .64.267.64.64V43.08c0 4.21-2.291 6.66-6.288 6.66-1.225 0-2.185 0-4.902-1.331l-5.595-3.197a4.497 4.497 0 0 1-2.238-3.89V16.758c0-1.599.853-3.09 2.238-3.89L23.494.56c1.333-.745 3.145-.745 4.477 0l21.26 12.31a4.497 4.497 0 0 1 2.238 3.889v24.564c0 1.599-.852 3.09-2.238 3.89L27.971 57.52c-.693.32-1.492.48-2.238.48Zm6.554-16.891c-9.325 0-11.243-4.263-11.243-7.886 0-.32.266-.64.64-.64h2.77c.32 0 .586.213.586.533.426 2.824 1.652 4.21 7.3 4.21 4.476 0 6.394-1.013 6.394-3.41 0-1.386-.533-2.398-7.513-3.091-5.808-.586-9.431-1.865-9.431-6.5 0-4.317 3.623-6.874 9.697-6.874 6.821 0 10.178 2.344 10.604 7.46a.86.86 0 0 1-.16.479c-.106.107-.266.213-.426.213h-2.77a.624.624 0 0 1-.587-.48c-.64-2.93-2.291-3.89-6.66-3.89-4.903 0-5.489 1.706-5.489 2.985 0 1.545.693 2.024 7.3 2.877 6.554.853 9.645 2.078 9.645 6.66-.053 4.69-3.89 7.354-10.657 7.354Z"/></clipPath><filter id="nodejs_svg__c"><feTurbulence baseFrequency="1" type="fractalNoise"/><feColorMatrix in="colorNoise" values=".33 .33 .33 0 0 .33 .33 .33 0 0 .33 .33 .33 0 0 0 0 0 1 0"/><feComposite in2="SourceGraphic" operator="in" result="monoNoise"/><feBlend in="SourceGraphic" in2="monoNoise" mode="multiply"/></filter></defs></svg>