<svg xmlns="http://www.w3.org/2000/svg" fill="none" viewBox="0 0 24 24"><path fill="url(#source-code_svg__a)" fill-rule="evenodd" d="M2 2.5a.5.5 0 0 1 .5-.5h20a.5.5 0 0 1 .5.5v20a.5.5 0 0 1-.5.5h-20a.5.5 0 0 1-.5-.5v-20ZM3 3v19h19V3H3Zm4.146 5.146a.5.5 0 0 1 .708 0l4 4a.5.5 0 0 1 0 .708l-4 4a.5.5 0 0 1-.708-.708l3.647-3.646-3.647-3.646a.5.5 0 0 1 0-.708ZM13.5 8a.5.5 0 0 0 0 1h4a.5.5 0 0 0 0-1h-4Zm-.5 8.5a.5.5 0 0 1 .5-.5h4a.5.5 0 0 1 0 1h-4a.5.5 0 0 1-.5-.5Zm2.5-4.5a.5.5 0 0 0 0 1h2a.5.5 0 0 0 0-1h-2Z" clip-rule="evenodd"/><defs><linearGradient id="source-code_svg__a" x1="12.5" x2="12.5" y1="2" y2="23" gradientUnits="userSpaceOnUse"><stop stop-color="#C59FDF"/><stop offset="1" stop-color="#AD79D2"/></linearGradient></defs></svg>