<svg xmlns="http://www.w3.org/2000/svg" fill="none" viewBox="0 0 60 60"><path fill="url(#rust_svg__a)" d="M28.127 7.068a1.782 1.782 0 0 1 2.465-1.648 1.783 1.783 0 1 1-2.465 1.648ZM6.852 23.212a1.784 1.784 0 1 1 3.567 0 1.784 1.784 0 0 1-3.567 0Zm42.55.083a1.783 1.783 0 1 1 3.566 0 1.783 1.783 0 0 1-3.567 0Zm-37.39 2.448a1.631 1.631 0 0 0 .827-2.148l-.791-1.79h3.112v14.027H8.88a21.957 21.957 0 0 1-.71-8.382l3.842-1.706Zm13.017.346v-4.135h7.41c.383 0 2.7.442 2.7 2.175 0 1.44-1.78 1.958-3.243 1.958l-6.867.002ZM14.911 48.347a1.783 1.783 0 1 1 3.566 0 1.783 1.783 0 0 1-3.566 0Zm26.426.082a1.783 1.783 0 1 1 3.566 0 1.783 1.783 0 0 1-3.566 0Zm.551-4.044a1.625 1.625 0 0 0-1.931 1.25l-.895 4.178a21.957 21.957 0 0 1-18.31-.088l-.895-4.178a1.622 1.622 0 0 0-1.93-1.25l-3.69.791a21.967 21.967 0 0 1-1.906-2.248h17.945c.202 0 .337-.038.337-.222v-6.347c0-.187-.135-.221-.337-.221h-5.25v-4.024H30.7c.518 0 2.77.15 3.492 3.026l1.059 4.688c.337 1.032 1.712 3.1 3.174 3.1h9.264a21.964 21.964 0 0 1-2.035 2.353l-3.767-.808Zm9.964-16.76c.126 1.267.142 2.543.047 3.812h-2.25c-.225 0-.319.15-.319.37v1.035c0 2.437-1.372 2.962-2.576 3.1-1.144.13-2.419-.48-2.573-1.182-.675-3.803-1.8-4.613-3.563-6.02 2.207-1.402 4.505-3.468 4.505-6.238 0-2.989-2.05-4.871-3.447-5.794-1.96-1.293-4.129-1.55-4.714-1.55H13.645A21.958 21.958 0 0 1 25.93 8.226l2.747 2.882c.619.651 1.65.675 2.299.053l3.075-2.938a21.957 21.957 0 0 1 15.033 10.704l-2.104 4.752a1.631 1.631 0 0 0 .827 2.149l4.046 1.798Zm5.247.075-.071-.735 2.167-2.021c.44-.413.276-1.238-.287-1.448l-2.77-1.035-.217-.712 1.725-2.4c.353-.488.028-1.266-.562-1.364l-2.922-.474-.35-.657 1.228-2.694c.251-.55-.216-1.25-.82-1.228l-2.962.103-.469-.568.68-2.888c.138-.587-.457-1.181-1.044-1.044l-2.887.68-.57-.468.103-2.963c.022-.6-.68-1.069-1.227-.82l-2.692 1.229-.657-.353-.476-2.921c-.093-.593-.875-.915-1.363-.563l-2.4 1.725-.713-.215-1.035-2.77c-.21-.562-1.037-.727-1.447-.289l-2.022 2.168-.735-.071-1.56-2.522c-.315-.51-1.162-.51-1.475 0l-1.56 2.522-.736.071L24.948.805c-.412-.44-1.237-.276-1.447.288l-1.035 2.77-.713.216-2.4-1.725c-.488-.353-1.268-.029-1.363.562l-.476 2.921-.657.353-2.692-1.228c-.548-.25-1.251.22-1.227.82l.103 2.962-.57.469-2.887-.681c-.587-.137-1.182.457-1.045 1.044l.681 2.888-.469.568-2.962-.103c-.6-.019-1.07.679-.82 1.228l1.228 2.695-.352.656-2.922.475c-.592.093-.915.875-.562 1.363l1.725 2.4-.218.712L1.1 23.493c-.563.21-.728 1.037-.287 1.448l2.168 2.021-.072.735-2.522 1.56c-.51.316-.51 1.163 0 1.476l2.522 1.56.072.735-2.174 2.03c-.438.412-.275 1.237.287 1.447l2.77 1.035.217.712-1.725 2.4c-.35.488-.028 1.268.563 1.364l2.92.474.352.656-1.228 2.693c-.25.547.22 1.25.82 1.228l2.962-.103.469.57-.681 2.888c-.137.585.457 1.181 1.044 1.042l2.888-.68.57.468-.103 2.963c-.023.6.679 1.069 1.226.82l2.693-1.229.656.353.476 2.92c.094.594.876.914 1.364.566l2.4-1.73.712.218 1.035 2.77c.21.562 1.037.727 1.448.287l2.021-2.168.735.075 1.56 2.522c.315.506 1.16.51 1.476 0l1.56-2.522.735-.075 2.022 2.168c.412.44 1.237.275 1.447-.287l1.035-2.77.713-.217 2.4 1.729c.487.35 1.267.028 1.363-.567l.476-2.92.657-.352 2.692 1.229c.548.249 1.249-.218 1.227-.82l-.104-2.963.569-.468 2.887.68c.587.137 1.181-.457 1.045-1.042l-.681-2.888.469-.57 2.962.103c.6.025 1.07-.68.82-1.228l-1.228-2.693.35-.656 2.922-.474c.594-.094.918-.874.562-1.363l-1.725-2.4.218-.713 2.77-1.035c.562-.212.727-1.037.286-1.448l-2.168-2.021.072-.735 2.522-1.56c.51-.315.512-1.16 0-1.476l-2.51-1.564Z"/><g clip-path="url(#rust_svg__b)" filter="url(#rust_svg__c)"><path fill="url(#rust_svg__a)" d="M28.127 7.068a1.782 1.782 0 0 1 2.465-1.648 1.783 1.783 0 1 1-2.465 1.648ZM6.852 23.212a1.784 1.784 0 1 1 3.567 0 1.784 1.784 0 0 1-3.567 0Zm42.55.083a1.783 1.783 0 1 1 3.566 0 1.783 1.783 0 0 1-3.567 0Zm-37.39 2.448a1.631 1.631 0 0 0 .827-2.148l-.791-1.79h3.112v14.027H8.88a21.957 21.957 0 0 1-.71-8.382l3.842-1.706Zm13.017.346v-4.135h7.41c.383 0 2.7.442 2.7 2.175 0 1.44-1.78 1.958-3.243 1.958l-6.867.002ZM14.911 48.347a1.783 1.783 0 1 1 3.566 0 1.783 1.783 0 0 1-3.566 0Zm26.426.082a1.783 1.783 0 1 1 3.566 0 1.783 1.783 0 0 1-3.566 0Zm.551-4.044a1.625 1.625 0 0 0-1.931 1.25l-.895 4.178a21.957 21.957 0 0 1-18.31-.088l-.895-4.178a1.622 1.622 0 0 0-1.93-1.25l-3.69.791a21.967 21.967 0 0 1-1.906-2.248h17.945c.202 0 .337-.038.337-.222v-6.347c0-.187-.135-.221-.337-.221h-5.25v-4.024H30.7c.518 0 2.77.15 3.492 3.026l1.059 4.688c.337 1.032 1.712 3.1 3.174 3.1h9.264a21.964 21.964 0 0 1-2.035 2.353l-3.767-.808Zm9.964-16.76c.126 1.267.142 2.543.047 3.812h-2.25c-.225 0-.319.15-.319.37v1.035c0 2.437-1.372 2.962-2.576 3.1-1.144.13-2.419-.48-2.573-1.182-.675-3.803-1.8-4.613-3.563-6.02 2.207-1.402 4.505-3.468 4.505-6.238 0-2.989-2.05-4.871-3.447-5.794-1.96-1.293-4.129-1.55-4.714-1.55H13.645A21.958 21.958 0 0 1 25.93 8.226l2.747 2.882c.619.651 1.65.675 2.299.053l3.075-2.938a21.957 21.957 0 0 1 15.033 10.704l-2.104 4.752a1.631 1.631 0 0 0 .827 2.149l4.046 1.798Zm5.247.075-.071-.735 2.167-2.021c.44-.413.276-1.238-.287-1.448l-2.77-1.035-.217-.712 1.725-2.4c.353-.488.028-1.266-.562-1.364l-2.922-.474-.35-.657 1.228-2.694c.251-.55-.216-1.25-.82-1.228l-2.962.103-.469-.568.68-2.888c.138-.587-.457-1.181-1.044-1.044l-2.887.68-.57-.468.103-2.963c.022-.6-.68-1.069-1.227-.82l-2.692 1.229-.657-.353-.476-2.921c-.093-.593-.875-.915-1.363-.563l-2.4 1.725-.713-.215-1.035-2.77c-.21-.562-1.037-.727-1.447-.289l-2.022 2.168-.735-.071-1.56-2.522c-.315-.51-1.162-.51-1.475 0l-1.56 2.522-.736.071L24.948.805c-.412-.44-1.237-.276-1.447.288l-1.035 2.77-.713.216-2.4-1.725c-.488-.353-1.268-.029-1.363.562l-.476 2.921-.657.353-2.692-1.228c-.548-.25-1.251.22-1.227.82l.103 2.962-.57.469-2.887-.681c-.587-.137-1.182.457-1.045 1.044l.681 2.888-.469.568-2.962-.103c-.6-.019-1.07.679-.82 1.228l1.228 2.695-.352.656-2.922.475c-.592.093-.915.875-.562 1.363l1.725 2.4-.218.712L1.1 23.493c-.563.21-.728 1.037-.287 1.448l2.168 2.021-.072.735-2.522 1.56c-.51.316-.51 1.163 0 1.476l2.522 1.56.072.735-2.174 2.03c-.438.412-.275 1.237.287 1.447l2.77 1.035.217.712-1.725 2.4c-.35.488-.028 1.268.563 1.364l2.92.474.352.656-1.228 2.693c-.25.547.22 1.25.82 1.228l2.962-.103.469.57-.681 2.888c-.137.585.457 1.181 1.044 1.042l2.888-.68.57.468-.103 2.963c-.023.6.679 1.069 1.226.82l2.693-1.229.656.353.476 2.92c.094.594.876.914 1.364.566l2.4-1.73.712.218 1.035 2.77c.21.562 1.037.727 1.448.287l2.021-2.168.735.075 1.56 2.522c.315.506 1.16.51 1.476 0l1.56-2.522.735-.075 2.022 2.168c.412.44 1.237.275 1.447-.287l1.035-2.77.713-.217 2.4 1.729c.487.35 1.267.028 1.363-.567l.476-2.92.657-.352 2.692 1.229c.548.249 1.249-.218 1.227-.82l-.104-2.963.569-.468 2.887.68c.587.137 1.181-.457 1.045-1.042l-.681-2.888.469-.57 2.962.103c.6.025 1.07-.68.82-1.228l-1.228-2.693.35-.656 2.922-.474c.594-.094.918-.874.562-1.363l-1.725-2.4.218-.713 2.77-1.035c.562-.212.727-1.037.286-1.448l-2.168-2.021.072-.735 2.522-1.56c.51-.315.512-1.16 0-1.476l-2.51-1.564Z"/></g><defs><linearGradient id="rust_svg__a" x1="29.997" x2="29.997" y1="0" y2="60" gradientUnits="userSpaceOnUse"><stop stop-color="azure"/><stop offset=".453" stop-color="#C8E0FF"/><stop offset="1" stop-color="#7880AA"/></linearGradient><clipPath id="rust_svg__b"><path d="M28.127 7.068a1.782 1.782 0 0 1 2.465-1.648 1.783 1.783 0 1 1-2.465 1.648ZM6.852 23.212a1.784 1.784 0 1 1 3.567 0 1.784 1.784 0 0 1-3.567 0Zm42.55.083a1.783 1.783 0 1 1 3.566 0 1.783 1.783 0 0 1-3.567 0Zm-37.39 2.448a1.631 1.631 0 0 0 .827-2.148l-.791-1.79h3.112v14.027H8.88a21.957 21.957 0 0 1-.71-8.382l3.842-1.706Zm13.017.346v-4.135h7.41c.383 0 2.7.442 2.7 2.175 0 1.44-1.78 1.958-3.243 1.958l-6.867.002ZM14.911 48.347a1.783 1.783 0 1 1 3.566 0 1.783 1.783 0 0 1-3.566 0Zm26.426.082a1.783 1.783 0 1 1 3.566 0 1.783 1.783 0 0 1-3.566 0Zm.551-4.044a1.625 1.625 0 0 0-1.931 1.25l-.895 4.178a21.957 21.957 0 0 1-18.31-.088l-.895-4.178a1.622 1.622 0 0 0-1.93-1.25l-3.69.791a21.967 21.967 0 0 1-1.906-2.248h17.945c.202 0 .337-.038.337-.222v-6.347c0-.187-.135-.221-.337-.221h-5.25v-4.024H30.7c.518 0 2.77.15 3.492 3.026l1.059 4.688c.337 1.032 1.712 3.1 3.174 3.1h9.264a21.964 21.964 0 0 1-2.035 2.353l-3.767-.808Zm9.964-16.76c.126 1.267.142 2.543.047 3.812h-2.25c-.225 0-.319.15-.319.37v1.035c0 2.437-1.372 2.962-2.576 3.1-1.144.13-2.419-.48-2.573-1.182-.675-3.803-1.8-4.613-3.563-6.02 2.207-1.402 4.505-3.468 4.505-6.238 0-2.989-2.05-4.871-3.447-5.794-1.96-1.293-4.129-1.55-4.714-1.55H13.645A21.958 21.958 0 0 1 25.93 8.226l2.747 2.882c.619.651 1.65.675 2.299.053l3.075-2.938a21.957 21.957 0 0 1 15.033 10.704l-2.104 4.752a1.631 1.631 0 0 0 .827 2.149l4.046 1.798Zm5.247.075-.071-.735 2.167-2.021c.44-.413.276-1.238-.287-1.448l-2.77-1.035-.217-.712 1.725-2.4c.353-.488.028-1.266-.562-1.364l-2.922-.474-.35-.657 1.228-2.694c.251-.55-.216-1.25-.82-1.228l-2.962.103-.469-.568.68-2.888c.138-.587-.457-1.181-1.044-1.044l-2.887.68-.57-.468.103-2.963c.022-.6-.68-1.069-1.227-.82l-2.692 1.229-.657-.353-.476-2.921c-.093-.593-.875-.915-1.363-.563l-2.4 1.725-.713-.215-1.035-2.77c-.21-.562-1.037-.727-1.447-.289l-2.022 2.168-.735-.071-1.56-2.522c-.315-.51-1.162-.51-1.475 0l-1.56 2.522-.736.071L24.948.805c-.412-.44-1.237-.276-1.447.288l-1.035 2.77-.713.216-2.4-1.725c-.488-.353-1.268-.029-1.363.562l-.476 2.921-.657.353-2.692-1.228c-.548-.25-1.251.22-1.227.82l.103 2.962-.57.469-2.887-.681c-.587-.137-1.182.457-1.045 1.044l.681 2.888-.469.568-2.962-.103c-.6-.019-1.07.679-.82 1.228l1.228 2.695-.352.656-2.922.475c-.592.093-.915.875-.562 1.363l1.725 2.4-.218.712L1.1 23.493c-.563.21-.728 1.037-.287 1.448l2.168 2.021-.072.735-2.522 1.56c-.51.316-.51 1.163 0 1.476l2.522 1.56.072.735-2.174 2.03c-.438.412-.275 1.237.287 1.447l2.77 1.035.217.712-1.725 2.4c-.35.488-.028 1.268.563 1.364l2.92.474.352.656-1.228 2.693c-.25.547.22 1.25.82 1.228l2.962-.103.469.57-.681 2.888c-.137.585.457 1.181 1.044 1.042l2.888-.68.57.468-.103 2.963c-.023.6.679 1.069 1.226.82l2.693-1.229.656.353.476 2.92c.094.594.876.914 1.364.566l2.4-1.73.712.218 1.035 2.77c.21.562 1.037.727 1.448.287l2.021-2.168.735.075 1.56 2.522c.315.506 1.16.51 1.476 0l1.56-2.522.735-.075 2.022 2.168c.412.44 1.237.275 1.447-.287l1.035-2.77.713-.217 2.4 1.729c.487.35 1.267.028 1.363-.567l.476-2.92.657-.352 2.692 1.229c.548.249 1.249-.218 1.227-.82l-.104-2.963.569-.468 2.887.68c.587.137 1.181-.457 1.045-1.042l-.681-2.888.469-.57 2.962.103c.6.025 1.07-.68.82-1.228l-1.228-2.693.35-.656 2.922-.474c.594-.094.918-.874.562-1.363l-1.725-2.4.218-.713 2.77-1.035c.562-.212.727-1.037.286-1.448l-2.168-2.021.072-.735 2.522-1.56c.51-.315.512-1.16 0-1.476l-2.51-1.564Z"/></clipPath><filter id="rust_svg__c"><feTurbulence baseFrequency="1" type="fractalNoise"/><feColorMatrix in="colorNoise" values=".33 .33 .33 0 0 .33 .33 .33 0 0 .33 .33 .33 0 0 0 0 0 1 0"/><feComposite in2="SourceGraphic" operator="in" result="monoNoise"/><feBlend in="SourceGraphic" in2="monoNoise" mode="multiply"/></filter></defs></svg>