<svg xmlns="http://www.w3.org/2000/svg" fill="none" viewBox="0 0 135 52"><g clip-path="url(#advanced_svg__a)"><path fill="#B2B7CC" fill-rule="evenodd" d="m0 40 16.117-28 16.171 28h-8.577l-7.594-13.18L8.523 40H0Zm41.959-2.57c-.656.656-1.585.984-2.786.984-.765 0-1.312-.164-1.749-.602-.382-.382-.6-.875-.6-1.585 0-.875.327-1.477.983-1.915.655-.437 1.748-.656 3.278-.71l1.912-.055v1.148c0 1.203-.383 2.078-1.038 2.735Zm1.147.492.383 1.805h1.366V31.14c0-1.422-.383-2.516-1.093-3.172-.71-.657-1.858-.985-3.333-.985-.71 0-1.475.11-2.185.274-.71.164-1.42.437-2.022.765l.601 1.477c1.312-.656 2.514-.984 3.551-.984.93 0 1.585.218 2.022.71.437.493.656 1.204.656 2.188v.766l-2.131.054c-4.043.11-6.065 1.477-6.065 3.992 0 1.204.328 2.079 1.039 2.735.655.656 1.639.984 2.895.984.929 0 1.748-.164 2.35-.437.6-.274 1.256-.82 1.857-1.586h.11Zm12.948-.547c-.6.71-1.53 1.039-2.84 1.039-1.093 0-1.967-.438-2.568-1.203-.601-.82-.874-2.024-.874-3.61 0-1.585.273-2.789.874-3.663.6-.875 1.475-1.313 2.567-1.313 1.312 0 2.24.383 2.841 1.148.601.766.874 2.024.874 3.829v.382c0 1.532-.273 2.68-.874 3.39Zm.874.71h.11l.328 1.75h1.53V22.009h-1.913v5.086l.055.875.054.93h-.163c-.93-1.258-2.24-1.86-3.934-1.86-1.64 0-2.896.547-3.824 1.695-.93 1.149-1.366 2.735-1.366 4.813 0 2.023.437 3.61 1.366 4.758.928 1.148 2.185 1.695 3.824 1.695 1.748 0 3.06-.656 3.934-1.914Zm3.989-10.882 4.753 12.524h2.24l4.753-12.524h-2.021a427.162 427.162 0 0 0-3.005 8.313c-.425 1.085-.646 1.886-.768 2.33l-.052.185h-.109c-.101-.505-.435-1.477-.959-3.001l-.134-.39-2.677-7.437h-2.021ZM80.585 37.43c-.656.656-1.584.984-2.786.984-.765 0-1.312-.164-1.749-.602-.382-.382-.6-.875-.6-1.585 0-.875.327-1.477.983-1.915.655-.437 1.748-.656 3.278-.71l1.912-.055v1.148c0 1.203-.383 2.078-1.038 2.735Zm1.093.492.382 1.805h1.366V31.14c0-1.422-.383-2.516-1.093-3.172-.71-.657-1.857-.985-3.332-.985-.71 0-1.476.11-2.186.274-.71.164-1.42.437-2.021.765l.6 1.477c1.312-.656 2.514-.984 3.552-.984.929 0 1.584.218 2.021.71.437.493.656 1.204.656 2.188v.766l-2.13.054c-4.044.11-6.065 1.477-6.065 3.992 0 1.204.328 2.079 1.038 2.735.656.656 1.639.984 2.896.984.928 0 1.748-.164 2.349-.437.6-.274 1.256-.82 1.857-1.586h.11Zm13.931-6.29V39.782h1.858v-8.203c0-1.586-.383-2.789-1.147-3.5-.765-.71-1.858-1.094-3.388-1.094-.874 0-1.639.164-2.35.492-.71.329-1.256.82-1.638 1.422h-.11l-.327-1.695h-1.53v12.469h1.912v-6.563c0-1.64.328-2.789.929-3.5.601-.71 1.584-1.039 2.896-1.039.983 0 1.693.274 2.185.766s.71 1.258.71 2.297Zm6.283 6.673c.984 1.148 2.404 1.695 4.207 1.695 1.256 0 2.295-.219 3.223-.656v-1.641c-1.092.438-2.185.656-3.223.656-1.257 0-2.185-.437-2.786-1.258-.601-.82-.929-2.023-.929-3.554 0-3.227 1.256-4.867 3.824-4.867.383 0 .82.054 1.311.164.492.11.929.273 1.366.437l.601-1.64c-.328-.164-.819-.328-1.42-.438a6.78 6.78 0 0 0-1.803-.219c-1.858 0-3.333.547-4.316 1.696-1.038 1.148-1.53 2.789-1.53 4.867s.492 3.664 1.475 4.758Zm12.183-8.75c.601-.657 1.421-.985 2.404-.985.984 0 1.749.328 2.295.985.546.601.819 1.53.819 2.734h-6.556c.11-1.148.437-2.078 1.038-2.734Zm-1.475 8.75c1.038 1.148 2.513 1.695 4.371 1.695.874 0 1.584-.055 2.131-.219.601-.11 1.256-.328 1.912-.601v-1.696c-1.311.547-2.623.82-3.988.82-1.312 0-2.295-.382-3.005-1.148-.71-.765-1.038-1.86-1.093-3.336h8.632v-1.203c0-1.695-.437-3.062-1.366-4.101-.928-1.04-2.13-1.532-3.715-1.532-1.639 0-3.005.602-3.988 1.805-.983 1.203-1.475 2.79-1.475 4.813 0 2.023.492 3.554 1.584 4.703Zm19.614-.93c-.601.71-1.53 1.039-2.841 1.039-1.147 0-2.022-.438-2.568-1.203-.601-.82-.874-2.024-.874-3.61 0-1.585.273-2.789.874-3.663.601-.875 1.475-1.313 2.568-1.313 1.311 0 2.24.383 2.841 1.148.601.766.874 2.024.874 3.829v.382c0 1.532-.273 2.68-.874 3.39Zm.819.71h.11l.327 1.75H135V22.009h-1.912v5.086l.055.875.054.93h-.164c-.928-1.258-2.24-1.86-3.933-1.86-1.639 0-2.896.547-3.825 1.695-.928 1.149-1.366 2.735-1.366 4.813 0 2.023.438 3.61 1.366 4.758.929 1.148 2.186 1.695 3.825 1.695 1.748 0 3.059-.656 3.933-1.914Z" clip-rule="evenodd"/></g><defs><clipPath id="advanced_svg__a"><path fill="#fff" d="M0 0h135v52H0z"/></clipPath></defs></svg>