<svg xmlns="http://www.w3.org/2000/svg" fill="none" viewBox="0 0 146 52"><path fill="#B3B7CC" fill-rule="evenodd" d="M19.68 19.345c-2.293-2.491-4.587-2.11-4.996-2.042h-.005c.046.016.092.264.166.664.245 1.316.796 4.284 2.664 6.05 1.645 1.515 5.002.988 5.002.988s-.592-3.225-2.83-5.66Zm2.766 8.49c-.725 0-3.686.264-5.661 2.7-1.358 1.708-1.783 3.184-2.052 4.116-.134.467-.23.798-.383.952.395.132 4.541.526 6.319-2.172 1.71-2.502 1.777-5.2 1.777-5.595ZM4.41 26.059c.13.019.346.192.653.438.79.631 2.18 1.742 4.218 1.932 2.716.29 3.86-.893 4.143-1.186.039-.04.062-.064.07-.064 0-.198-2.501-2.897-5.266-2.897-1.909.066-3.818 1.777-3.818 1.777Zm11.256 1.383-.02.022c-.25.303-2.848 3.43-8.669 2.545-3.885-.63-5.802-2.474-6.585-3.229-.2-.191-.325-.312-.392-.326.395-.526 4.081-3.488 8.36-3.423 4.212.132 7.306 2.502 7.306 2.502h2.698c-2.172-.658-4.805-1.843-5.99-4.476-.693-1.605-.844-2.78-.998-3.98-.08-.62-.16-1.248-.318-1.944 0 0 4.871-.395 8.623 2.04 3.366 2.2 5.267 7.966 5.392 8.345l.005.015h2.107L26.724 15l2.633.066c-.305 1.831-.148 11.114-.046 17.173.052 3.088.09 5.339.046 5.339-.263.065-2.502.197-2.699-.33 0 0 .527-9.676.593-9.873H25.21c0 .131-.198 5.595-4.344 8.491-4.147 2.896-10.137 2.04-10.137 2.04.268-.413.338-.835.425-1.366.15-.906.353-2.128 1.681-4.163 2.185-3.307 5.006-4.706 5.516-4.96.058-.028.086-.042.08-.042-.198.066-2.7.066-2.765.066Zm26.068-1.317c-1.58.197-2.567.658-3.225 1.317-.527.526-.79 1.184-.79 1.843 0 1.184.855 2.04 1.909 2.04.658 0 1.316-.263 1.645-.658.132-.132.263-.395.263-.658l.198-3.884Zm2.698 7.043c-1.316 0-2.501-.856-2.83-2.172-.658 1.185-1.909 2.172-3.554 2.172-1.843 0-3.423-1.448-3.423-3.291 0-2.567 2.435-4.41 7.043-4.476v-.658c.066-1.843-.987-2.963-2.83-2.963-1.317 0-2.699.857-3.62 1.975-.066.066-.461-.329-.461-.395 1.184-2.369 3.357-3.686 5.595-3.686 2.566 0 4.41 1.844 4.344 4.937l-.197 5.134c0 1.185.526 1.712 1.118 1.712.658 0 1.12-.527 1.383-1.251 0-.066.394.132.394.197 0 1.778-1.316 2.765-2.962 2.765Zm16.39-.46h-3.488c-.066 0-.066-.659 0-.659 1.448-.197 1.645-.329 1.645-3.16V24.94c0-1.777-1.053-3.027-2.567-3.027-1.053 0-2.04.526-2.501 1.184-.33.395-.527 1.12-.527 2.04v3.753c0 2.83.33 2.962 1.777 3.16 0 0 .066.657 0 .657h-6.714c-.065 0-.065-.658-.065-.658 1.58-.263 1.777-.329 1.777-3.16v-4.804c0-2.897-.33-3.028-2.04-3.291-.132 0-.067-.659 0-.659h5.002v2.896h.066c1.119-2.106 2.83-3.357 4.936-3.357 2.37 0 4.213 1.844 4.213 4.871v4.279c0 2.83.263 2.962 1.843 3.16.132 0 .066.658 0 .658-.987.065-2.436.065-3.357.065Zm10.597.46c-3.949 0-6.516-3.094-6.516-6.648 0-3.818 2.567-6.846 6.78-6.846 1.276 0 2.14.275 2.75.47.335.106.595.189.804.189.264 0 .527-.198.658-.527 0-.066.79-.066.79 0v4.74c0 .065-.79.065-.79 0-1.053-2.173-2.5-4.016-4.212-4.016-2.107 0-3.357 2.238-3.357 5.332 0 3.29 1.711 5.463 4.081 5.463 1.58 0 3.357-1.119 4.081-2.37.066-.131.592.132.592.264-.855 2.238-3.093 3.95-5.66 3.95Zm15.995-8.36v-.921c0-2.04-.987-3.225-2.238-3.225-1.58 0-2.764 1.711-3.028 4.147h5.266Zm-5.266 1.514c0 2.83 1.58 5.003 4.279 5.003 1.58 0 3.159-1.053 4.015-2.37 0-.065.527.132.527.264-.724 2.238-3.094 3.949-5.727 3.949-4.147 0-6.582-3.028-6.582-6.648 0-3.62 2.567-6.846 6.911-6.846 3.291 0 5.464 2.172 5.661 5.135v.921H82.28c-.132.132-.132.46-.132.593Zm15.666 6.846c-2.04 0-3.818-.526-4.41-.921-.066-.066-.263-1.778-.263-3.489 0-.066.79-.132.79 0 1.053 2.304 2.567 3.62 4.212 3.62 1.382 0 2.37-.724 2.37-1.843 0-1.206-1.326-1.804-2.763-2.453a69.94 69.94 0 0 1-.396-.18c-1.91-.724-4.081-1.711-4.081-4.146 0-1.91 1.645-3.884 4.739-3.884.788 0 1.41.188 1.91.34.336.102.617.186.854.186.264 0 .527-.197.724-.526 0-.066.79-.066.79 0v4.344c0 .066-.79.066-.79 0-1.053-1.974-2.303-3.357-3.817-3.357-1.383 0-2.041.922-2.041 1.646 0 1.226 1.312 1.766 2.768 2.366l.325.135c1.909.79 4.147 1.778 4.147 4.279 0 2.106-1.974 3.883-5.068 3.883Zm6.517-11.65c-.198 0-.264-.527-.066-.659 1.382-1.25 3.686-3.357 4.936-4.674.066-.065.527 0 .527.132V20.2h4.476c.132 0 .132 1.25 0 1.25h-4.476v7.307c0 1.645.987 2.37 2.04 2.37.79 0 1.646-.659 2.041-1.449 0-.066.527.198.527.264-.527 1.777-2.238 3.16-4.147 3.16-2.041 0-3.686-1.317-3.686-3.884v-7.702h-2.172Zm20.8 2.106c-.168 0-.443-.214-.759-.46-.428-.333-.932-.725-1.348-.725-.329 0-.724.198-1.053.527-.527.526-.987 1.777-.987 2.83v3.16c0 2.896.461 2.962 1.974 3.159 0 0 .066.658 0 .658h-6.976c-.066 0-.066-.658 0-.658 1.579-.263 1.777-.33 1.777-3.16V24.15c0-2.83-.329-3.028-2.041-3.29-.132 0-.066-.66 0-.66h5.068v3.292h.132c.079-.238.207-.5.339-.772.086-.179.175-.362.253-.545.922-1.514 2.041-2.435 3.226-2.435 1.119 0 2.04.856 2.04 1.777.066 1.053-1.316 2.106-1.645 2.106Zm13.624 1.711-4.278 10.993C132.963 40.21 131.581 41 129.738 41c-1.053 0-2.238-.526-2.238-.855-.066-.527.658-2.436 1.053-2.436.038 0 .198.061.425.147.556.212 1.515.577 2.076.577 1.119 0 1.843-.724 2.435-2.304l.79-2.106c-.203-.812-2.128-5.109-3.18-7.455l-.001-.003c-.311-.695-.546-1.218-.636-1.428-.161-.375-.31-.733-.451-1.07-.553-1.324-.973-2.329-1.392-2.748-.329-.33-.658-.46-1.58-.593-.066 0-.066-.658 0-.658.413 0 1.039.015 1.689.031.697.017 1.42.035 1.931.035.512 0 1.217-.018 1.897-.035.634-.016 1.245-.031 1.658-.031.065 0 .065.658 0 .658-1.975.263-1.778.922-.724 3.555l2.304 5.595 1.842-4.806c.659-1.645.988-2.633.988-3.225 0-.724-.461-.987-1.843-1.053-.066 0-.066-.724 0-.724.478 0 1.028.017 1.556.034.489.016.96.032 1.34.032.249 0 .499-.012.788-.026.397-.018.868-.04 1.516-.04.066 0 .131.724 0 .724-.724.066-1.053.263-1.448.658-.527.527-.922 1.58-1.778 3.883v.001Zm6.105-4.286c0 .165-.134.235-.325.235h-.185v-.477h.204c.229 0 .306.096.306.242Zm-.274-.42h-.439v1.31h.203v-.483h.299l.248.483h.236l-.312-.546a.379.379 0 0 0 .254-.357c0-.318-.241-.407-.489-.407Zm-.007-.382c.535 0 .961.452.961 1.063 0 .604-.426 1.043-.961 1.043-.534 0-.96-.44-.96-1.043 0-.611.426-1.063.96-1.063Zm0-.178c-.629 0-1.157.496-1.157 1.24 0 .738.528 1.228 1.157 1.228.636 0 1.158-.49 1.158-1.227 0-.745-.522-1.24-1.158-1.24Z" clip-rule="evenodd"/></svg>