<svg xmlns="http://www.w3.org/2000/svg" fill="none" viewBox="0 0 90 52"><path fill="#B2B7CC" fill-rule="evenodd" d="M37.36 17c1.478 0 3.745.067 5.037.151 1.31.102 2.855.337 3.493.506.79.235 1.343.538 1.83.993.403.354.89 1.027 1.092 1.516.251.538.453 1.515.57 2.66.118 1.06.152 2.896.084 4.428-.05 1.465-.201 3.031-.352 3.57-.134.539-.437 1.28-.672 1.65-.235.37-.672.859-.974 1.078-.285.219-.84.522-1.209.673-.37.152-1.31.388-2.099.522-1.057.186-2.837.253-6.766.253-4.534 0-5.558-.05-6.885-.32-.84-.168-1.847-.455-2.216-.64-.37-.185-.924-.64-1.226-.993-.319-.387-.705-1.162-.923-1.836-.336-1.077-.37-1.532-.37-5.135 0-3.267.05-4.126.286-4.883.168-.505.503-1.263.772-1.684.336-.539.756-.91 1.478-1.297.537-.286 1.444-.606 1.998-.707.554-.118 1.763-.252 2.686-.337.924-.084 2.889-.151 4.366-.168Zm-5.172 4.917c-.251.151-.57.572-.722.909-.168.404-.302 1.33-.369 2.408-.034.976 0 2.29.118 2.946.134.91.285 1.297.638 1.65.268.27.654.523.89.59.235.067 2.468.118 4.953.118 3.66 0 4.634-.05 5.104-.253.303-.134.722-.522.924-.842.319-.538.353-.825.353-3.57 0-2.76-.034-3.013-.353-3.451-.185-.253-.638-.573-1.008-.69-.42-.152-1.83-.253-3.929-.287-1.796-.033-3.912 0-4.701.068-.873.067-1.612.218-1.898.404ZM0 17.32h8.597c5.037 0 9.034.067 9.621.168.588.101 1.344.388 1.797.674.52.32.94.758 1.175 1.212.269.539.386 1.111.437 2.24.033.842-.017 1.818-.118 2.189-.1.37-.403.875-.654 1.145a8.177 8.177 0 0 1-.79.69c-.319.219-.302.253.336.522.37.151.89.471 1.142.724.252.253.554.758.655 1.128.1.37.168 1.28.168 2.02 0 .775-.135 1.668-.286 2.106-.15.42-.554 1.044-.89 1.397-.37.387-.957.741-1.46.91-.74.252-2.066.286-19.73.387V17.32Zm5.205 6.904h10.427c.689-.708.823-1.028.823-1.432a1.58 1.58 0 0 0-.403-1.06l-.403-.455-10.427-.101-.017 3.048Zm0 6.735c8.698-.017 10.511-.084 10.914-.22.37-.134.655-.37.806-.706a1.73 1.73 0 0 0 .135-1.044 1.647 1.647 0 0 0-.571-.893c-.437-.336-.689-.336-5.877-.336H5.205v3.199Zm84.728-13.134c.033 0 .067.185.067.421s-.118.455-.252.505c-.218.067-.218 0-.067-.42.1-.27.201-.506.252-.506Zm-36.37-.505h8.48c5.34 0 8.966.067 9.772.185.722.101 1.612.32 1.982.489.369.151.957.538 1.326.858.353.32.772.842.94 1.162.151.32.387 1.01.521 1.515.168.657.235 2.021.218 4.715 0 3.031-.05 3.974-.268 4.715-.168.505-.504 1.246-.756 1.633-.269.387-.739.91-1.058 1.145-.319.236-1.007.573-1.511.724-.823.253-1.931.286-19.562.286l-.084-17.427Zm5.374 13.302c10.209-.084 10.897-.118 11.384-.37.285-.169.672-.54.84-.842.234-.455.285-.994.285-3.25 0-2.24-.05-2.778-.286-3.233-.184-.337-.587-.69-1.007-.892-.672-.303-1.091-.32-5.96-.337h-5.256v8.924Zm25.74-13.285c.806-.017 1.041.05 1.478.454.386.337.537.64.604 1.213.067.606 0 .875-.319 1.347-.201.32-.655.724-.974.91-.386.218-.906.336-1.51.336-.588 0-1.092-.101-1.378-.286-.268-.152-.587-.522-.739-.826-.167-.353-.234-.757-.167-1.094.05-.303.285-.791.487-1.078a2.83 2.83 0 0 1 .973-.757c.32-.118 1.008-.22 1.545-.22Zm4.08.118c.034.118.185.202.32.202.134 0 .285.067.319.134.033.068-.118.135-.336.169-.32.034-.403-.034-.386-.337 0-.219.033-.286.083-.168Zm-.335.202c.033 0 .016.151-.017.337-.05.185 0 .505.117.724.168.336.168.353-.1.117a1.046 1.046 0 0 1-.303-.606c-.016-.185.034-.387.118-.454a.701.701 0 0 1 .185-.118Zm-3.88 5.556c.605 0 1.092.084 1.227.22.117.1.201.572.201 1.01 0 .538-.37 1.868-1.175 4.209-.638 1.869-1.176 3.469-1.176 3.536 0 .067.168.118.387.118.201 0 .722-.219 1.175-.505.437-.27.873-.472.957-.421.1.05.168.27.168.505 0 .303-.235.623-.79 1.111-.453.37-1.175.859-1.645 1.078-.453.219-1.326.488-1.93.59-.605.1-1.344.15-1.63.1-.302-.05-.671-.27-.805-.471a2.05 2.05 0 0 1-.252-.926c0-.303.537-2.105 1.175-4.008.655-1.903 1.142-3.519 1.091-3.62a.392.392 0 0 0-.285-.168c-.117 0-.57.185-1.007.42-.689.371-.823.388-.924.169-.09-.168.034-.427.37-.775.285-.286.84-.707 1.259-.96.42-.235 1.175-.605 1.679-.824a5.798 5.798 0 0 1 1.93-.388Z" clip-rule="evenodd"/></svg>