<?xml version="1.0" standalone="no"?>
<!DOCTYPE svg PUBLIC "-//W3C//DTD SVG 20010904//EN"
 "http://www.w3.org/TR/2001/REC-SVG-20010904/DTD/svg10.dtd">
<svg version="1.0" xmlns="http://www.w3.org/2000/svg"
 width="1920.000000pt" height="1080.000000pt" viewBox="0 0 1920.000000 1080.000000"
 preserveAspectRatio="xMidYMid meet">
<metadata>
Created by potrace 1.16, written by Peter Selinger 2001-2019
</metadata>
<g transform="translate(0.000000,1080.000000) scale(0.100000,-0.100000)"
fill="#000000" stroke="none">
<path d="M0 5400 l0 -5400 1710 0 c1622 0 1710 1 1710 18 0 9 -4 23 -9 31 -12
18 2 56 20 57 28 1 49 -28 49 -68 l0 -38 7860 0 7860 0 0 5400 0 5400 -6819 0
-6819 0 -4 -37 c-7 -56 7 -122 28 -138 18 -13 18 -14 1 -21 -27 -10 -48 16
-54 67 -4 24 -13 50 -22 57 -15 11 -14 13 2 23 9 5 17 19 17 29 0 19 -8 20
-100 20 l-100 0 0 -36 c0 -41 -37 -114 -57 -114 -17 0 -16 21 2 47 9 12 17 39
18 60 2 36 0 38 -28 41 -27 3 -32 -1 -40 -29 -15 -48 -38 -58 -72 -33 -15 12
-29 31 -31 43 -4 26 -32 28 -32 2 0 -45 -67 -49 -91 -5 -15 29 -30 30 -48 5
-15 -21 -45 -18 -74 7 -15 13 -22 14 -38 4 -14 -9 -31 -9 -61 -2 -56 13 -1275
13 -1283 1 -3 -5 -1 -12 5 -16 15 -9 13 -158 -3 -179 -10 -14 -19 -16 -47 -9
-44 12 -52 33 -11 33 l31 0 0 65 c0 61 -2 66 -25 75 -14 5 -25 16 -25 25 0 13
-19 15 -117 15 l-117 0 32 -29 c35 -32 41 -61 16 -81 -22 -19 -88 -1 -92 24
-4 16 0 18 27 13 33 -7 43 8 13 17 -11 4 -25 18 -32 31 -16 30 -26 32 -33 5
-4 -15 -14 -20 -38 -20 -35 0 -30 -15 6 -22 11 -2 21 -11 23 -21 3 -16 -1 -17
-35 -12 -42 7 -83 45 -83 76 0 16 -7 19 -40 19 -38 0 -40 -2 -40 -31 0 -24 -4
-30 -17 -27 -11 2 -19 14 -21 31 l-3 27 -1435 0 -1434 0 0 -5400z m6454 4904
c36 -5 46 -11 46 -25 0 -23 16 -25 24 -4 7 19 46 19 74 -1 24 -17 31 -73 10
-75 -7 -1 -21 -2 -30 -3 -30 -2 -25 -21 7 -26 17 -3 30 -10 30 -15 0 -17 -65
-18 -84 -1 -10 9 -26 13 -39 9 -14 -3 -22 -1 -22 7 0 10 -3 10 -15 0 -8 -7
-20 -8 -27 -4 -7 5 -21 7 -30 6 -16 -3 -18 6 -18 67 0 78 -3 75 74 65z m524
-86 c7 -7 12 -34 12 -61 0 -30 4 -46 10 -42 6 3 8 16 4 29 -3 14 2 31 14 46
16 20 24 22 66 16 42 -7 46 -9 40 -29 -6 -21 -6 -21 13 -4 11 9 34 17 51 17
25 0 35 -6 47 -31 21 -40 13 -59 -25 -59 -39 0 -39 -16 1 -24 27 -5 30 -8 19
-21 -14 -17 -53 -20 -79 -5 -14 7 -21 4 -31 -15 -14 -25 -26 -30 -70 -26 -37
4 -52 21 -48 53 5 30 -6 46 -17 28 -8 -13 -61 -13 -86 0 -36 20 -18 80 23 80
10 0 18 5 18 11 0 7 -10 9 -25 7 -26 -5 -29 -1 -19 26 7 19 64 22 82 4z
m-4020 -79 c17 -6 33 -18 37 -27 6 -16 8 -15 20 1 29 40 115 -8 115 -65 0 -26
-3 -28 -37 -29 l-38 -1 33 -14 c17 -8 32 -21 32 -30 0 -13 -7 -15 -36 -11 -40
7 -70 29 -80 60 -3 11 -18 30 -33 43 -24 21 -27 22 -38 7 -7 -9 -13 -29 -13
-45 0 -33 -24 -38 -40 -9 -11 22 -14 114 -3 124 10 10 46 8 81 -4z m798 -133
c29 -9 46 -45 42 -91 -3 -44 -24 -61 -61 -51 -51 12 -80 101 -46 139 13 15 19
16 65 3z m2746 -422 c4 -3 8 -17 9 -32 0 -25 1 -26 9 -6 12 30 26 37 59 29 39
-8 61 -63 34 -82 -9 -7 -26 -10 -36 -7 -14 4 -18 2 -15 -7 3 -8 17 -15 31 -17
15 -2 27 -7 27 -12 0 -31 -82 -21 -98 13 -8 17 -11 18 -11 5 -1 -14 -8 -16
-38 -13 -21 2 -40 5 -43 6 -3 1 -13 1 -22 0 -16 -2 -18 7 -18 70 l0 72 52 -7
c28 -4 55 -9 60 -12z m626 -90 c10 -3 10 -9 2 -23 -17 -34 -11 -37 13 -7 20
24 28 27 54 22 52 -12 72 -81 26 -92 -48 -10 -49 -12 -15 -19 35 -8 41 -19 16
-33 -40 -22 -94 16 -94 67 0 24 0 24 -21 5 -15 -13 -17 -20 -7 -23 25 -8 36
-34 25 -58 -12 -28 -50 -39 -86 -27 -24 9 -26 14 -29 83 -4 96 12 125 66 116
20 -4 43 -8 50 -11z m-4548 -365 c0 -6 -7 -18 -16 -27 -13 -13 -15 -31 -12
-94 3 -43 10 -84 16 -90 18 -18 14 -38 -7 -38 -27 0 -61 46 -61 82 0 16 -7 39
-15 52 -14 21 -14 24 0 29 10 4 15 20 15 46 0 47 30 77 62 60 10 -5 18 -14 18
-20z m9433 -320 c55 -13 67 -37 48 -98 l-11 -37 -50 6 c-30 4 -54 2 -60 -4 -8
-8 -13 -7 -20 4 -7 11 -13 12 -35 2 -103 -47 -215 51 -144 127 21 22 26 23
123 17 55 -4 122 -12 149 -17z m297 -61 c30 -51 44 -68 53 -68 12 0 37 27 37
39 0 6 5 11 10 11 6 0 10 -8 10 -17 0 -10 9 -31 19 -46 17 -26 17 -31 4 -59
-28 -54 -63 -46 -63 15 l0 28 -30 -18 c-17 -9 -33 -25 -36 -35 -8 -25 -15 -23
-58 16 l-38 33 31 6 c37 8 46 47 11 47 -25 0 -26 28 -2 58 23 29 29 28 52 -10z
m-9880 -378 c9 -5 14 -21 12 -38 -2 -21 2 -31 15 -36 9 -4 15 -4 11 -1 -3 4
-2 20 4 36 9 28 13 29 69 29 33 0 59 4 59 10 0 12 57 14 64 2 3 -5 18 -7 35
-4 23 3 33 -1 46 -22 13 -20 26 -26 54 -26 55 0 77 -21 85 -80 4 -33 11 -50
19 -47 19 6 20 43 2 77 -14 27 -14 31 0 36 8 3 15 17 15 30 0 16 6 24 18 24
32 0 39 -15 46 -94 4 -44 9 -83 12 -88 8 -12 38 -10 52 4 18 18 14 89 -7 125
-11 17 -17 34 -14 37 14 13 45 5 68 -19 22 -21 25 -33 25 -94 0 -38 5 -73 10
-76 6 -3 10 -13 10 -21 0 -17 -85 -20 -96 -3 -3 6 -20 9 -37 6 -17 -2 -47 0
-66 5 -20 5 -62 11 -94 13 -32 2 -65 9 -72 15 -7 6 -17 10 -21 9 -27 -5 -45 4
-61 31 -21 37 -31 38 -39 5 -3 -14 -12 -25 -18 -25 -7 0 -18 -11 -24 -25 -23
-50 -125 -39 -146 16 -9 25 -16 29 -47 29 -48 0 -89 31 -71 53 11 13 11 21 -1
44 -22 42 -7 73 35 73 18 0 40 -5 48 -10z m967 -143 c17 -12 7 -27 -18 -27
-10 0 -19 -4 -19 -10 0 -5 6 -10 14 -10 8 0 22 -10 30 -21 14 -21 15 -20 25
19 6 22 17 42 24 45 43 16 111 -34 105 -77 -2 -17 -10 -21 -35 -20 -41 2 -43
-11 -3 -25 41 -14 38 -31 -7 -31 -27 0 -45 8 -66 28 -26 25 -29 26 -38 10 -14
-26 -80 -24 -104 2 -18 20 -17 20 21 20 l39 0 -32 26 c-34 26 -43 60 -22 81
13 13 66 7 86 -10z m233 -6 c5 -11 19 -23 30 -26 28 -9 26 -37 -2 -33 -19 2
-24 -2 -26 -25 -4 -31 12 -57 35 -57 7 0 15 6 17 13 43 145 44 147 79 124 14
-9 30 -40 44 -83 l21 -69 1 53 1 52 40 0 c49 0 76 -24 86 -75 8 -42 -15 -75
-53 -75 -17 0 -23 -6 -23 -23 0 -31 -9 -38 -31 -26 -11 5 -19 21 -19 34 0 14
-6 25 -14 25 -7 0 -26 12 -41 26 -26 24 -28 24 -40 7 -11 -15 -22 -18 -62 -13
-68 7 -84 19 -90 71 -3 24 -12 52 -20 61 -13 14 -12 19 4 36 23 26 50 27 63 3z
m510 -68 c8 -13 13 -14 16 -5 7 15 36 16 51 1 9 -9 9 -15 0 -24 -48 -51 -48
-51 -16 -94 16 -23 29 -43 29 -46 0 -14 -42 -2 -52 15 -15 24 -28 26 -28 5 0
-8 -6 -15 -13 -15 -28 0 -37 25 -37 102 0 71 2 78 20 78 10 0 24 -8 30 -17z
m-1696 -89 c20 -8 21 -43 1 -50 -21 -8 -19 -21 6 -35 15 -8 24 -8 32 0 13 13
77 14 97 1 12 -7 13 -13 4 -27 -9 -14 -7 -26 10 -55 20 -36 20 -37 2 -57 -25
-28 -77 -28 -102 0 -18 20 -18 21 1 35 18 14 18 15 -9 43 -26 27 -29 28 -47
13 -11 -10 -19 -29 -19 -49 0 -20 -5 -33 -13 -33 -23 0 -57 31 -57 52 0 12 -5
36 -12 54 -9 27 -9 35 5 48 8 9 18 25 22 35 8 25 47 37 79 25z m2287 -25 c6
-10 11 -10 22 0 27 22 107 -12 107 -46 0 -7 5 -13 10 -13 6 0 10 12 10 26 0
25 2 25 43 19 23 -4 45 -10 49 -14 4 -3 10 -35 14 -70 6 -58 5 -63 -12 -59
-15 2 -20 14 -24 51 -6 59 -24 62 -28 5 -2 -24 -6 -46 -10 -50 -12 -12 -33 7
-35 30 -2 28 -5 28 -29 -3 -15 -20 -25 -24 -46 -19 -45 11 -62 33 -62 81 0 42
-1 43 -34 43 -33 0 -46 -13 -46 -46 0 -7 16 -20 35 -28 19 -8 35 -20 35 -25 0
-19 -56 -12 -84 10 -21 16 -26 29 -26 63 0 23 6 48 13 55 15 15 86 8 98 -10z
m747 -55 c24 -7 11 -24 -19 -24 -23 0 -30 -4 -27 -16 2 -9 12 -22 23 -28 28
-16 44 -38 45 -62 0 -34 -23 -46 -73 -39 -42 6 -45 5 -51 -19 -5 -20 -13 -26
-34 -26 -15 0 -38 6 -52 13 -23 12 -25 18 -26 82 0 40 5 79 12 91 11 19 18 20
61 14 40 -6 50 -5 63 11 14 17 31 18 78 3z m-2613 -48 c12 -8 34 -11 61 -8 36
4 46 0 66 -20 13 -13 28 -32 33 -41 7 -12 14 -14 25 -7 13 8 13 11 1 19 -8 5
-11 16 -7 26 8 23 64 11 93 -20 16 -18 23 -21 26 -10 3 7 19 16 36 20 20 4 31
13 33 28 2 16 9 21 23 19 26 -5 34 -19 36 -62 l2 -35 6 35 c6 34 7 35 49 33
69 -3 98 -43 31 -43 -38 0 -37 -15 2 -35 30 -16 35 -40 8 -40 -21 -1 -40 -15
-38 -28 5 -39 -17 -50 -41 -22 -9 11 -16 13 -24 5 -15 -15 -79 -12 -105 6 -17
12 -26 13 -34 5 -28 -28 -127 4 -127 40 0 10 -9 21 -21 24 -27 9 -39 -4 -16
-16 28 -16 21 -39 -12 -39 -35 0 -86 40 -95 73 -3 13 -17 29 -31 35 -26 12
-27 11 -37 -53 -4 -22 -37 -23 -50 -2 -9 14 -10 89 -2 111 8 20 82 22 109 2z
m656 -43 c8 -9 9 -17 2 -24 -14 -14 -4 -110 13 -130 9 -10 24 -14 39 -11 23 4
25 8 25 67 0 43 -5 66 -15 75 -21 17 -19 30 6 30 50 0 59 -15 59 -99 0 -61 3
-80 15 -85 21 -8 19 -36 -3 -36 -9 0 -33 5 -52 11 -19 6 -61 11 -92 12 -40 1
-63 7 -75 20 -17 17 -17 18 5 23 17 5 22 14 22 39 0 18 -7 38 -15 45 -21 18
-19 30 6 30 18 0 19 3 9 15 -17 21 -6 45 19 38 11 -3 26 -12 32 -20z m2475
-13 c17 0 18 -40 2 -75 -10 -22 -17 -26 -40 -21 -15 3 -28 1 -28 -4 0 -6 16
-10 35 -10 43 0 60 -25 42 -61 -10 -20 -19 -23 -47 -21 -50 5 -60 23 -56 107
4 88 9 99 48 91 17 -3 37 -6 44 -6z m-2196 -80 c11 -11 20 -33 20 -51 0 -31
-1 -31 -35 -26 -40 6 -48 -9 -10 -19 13 -3 29 -12 36 -20 9 -12 4 -14 -30 -14
-56 0 -91 34 -91 88 0 21 5 43 12 50 19 19 76 14 98 -8z m3200 -90 l0 -101
-42 5 c-49 6 -58 17 -58 70 0 43 22 76 52 76 11 0 18 7 18 18 0 20 8 32 22 32
4 0 8 -45 8 -100z m127 22 c11 -7 8 -34 -8 -87 -1 -5 4 -23 11 -38 19 -39 4
-61 -46 -65 -52 -5 -64 13 -58 91 8 104 9 107 52 107 20 0 42 -4 49 -8z m375
-69 l3 -78 18 60 c11 33 24 63 30 67 21 13 44 -11 58 -59 l13 -48 4 48 3 47
44 0 c48 0 75 -24 75 -68 0 -25 -45 -76 -59 -67 -5 3 -11 -5 -13 -17 -2 -19
-10 -23 -40 -24 -29 -2 -39 2 -43 17 -7 20 -39 26 -50 10 -3 -6 -33 -7 -68 -5
-71 6 -87 20 -87 74 0 41 16 67 45 72 12 2 21 12 23 26 2 14 10 22 22 22 17 0
20 -9 22 -77z m361 7 c5 -4 1 -14 -7 -23 -20 -19 -21 -100 -3 -116 20 -16 24
-6 20 45 -6 64 3 94 27 94 11 0 20 -7 20 -15 0 -17 16 -20 25 -5 9 15 45 12
45 -4 0 -7 -10 -26 -22 -41 -20 -25 -20 -30 -7 -53 16 -28 41 -42 38 -21 -5
38 3 60 27 76 24 16 29 16 54 1 16 -9 39 -13 54 -11 22 5 28 1 33 -16 7 -26
11 -26 32 1 20 24 41 17 41 -12 0 -11 -9 -39 -19 -62 -10 -24 -24 -55 -30 -70
-14 -37 -43 -51 -67 -33 -18 14 -18 15 5 33 22 18 23 22 11 56 -12 38 -19 43
-38 24 -8 -8 -8 -15 -1 -24 26 -31 -38 -48 -77 -20 -11 9 -30 12 -48 9 -20 -4
-31 -1 -38 11 -8 15 -10 15 -25 0 -15 -15 -18 -15 -30 1 -10 15 -15 16 -28 5
-16 -14 -80 -6 -91 11 -3 6 1 18 10 28 22 24 21 97 -1 109 -10 6 -14 16 -10
26 5 13 15 15 49 10 24 -4 47 -10 51 -14z m-4458 -120 c3 -5 -4 -26 -15 -47
-25 -47 -25 -96 0 -152 23 -50 21 -56 -14 -47 -16 4 -32 21 -46 52 -40 81 -13
204 45 204 13 0 26 -4 30 -10z m105 -61 c19 -6 53 -10 76 -10 22 1 54 -3 70
-10 16 -6 50 -11 76 -10 39 2 52 -2 73 -23 14 -14 25 -32 25 -41 0 -18 -31
-20 -48 -3 -17 17 -32 -6 -32 -49 0 -22 -5 -33 -14 -33 -22 0 -46 29 -46 54 0
15 -9 27 -25 34 -40 18 -45 15 -45 -26 l0 -39 -62 0 c-67 -1 -111 15 -128 46
-16 31 -12 79 10 101 23 23 24 23 70 9z m983 -41 c23 -12 11 -31 -14 -23 -18
6 -19 0 -19 -124 0 -125 1 -130 22 -133 12 -2 23 -9 26 -17 4 -11 -8 -12 -59
-6 -67 7 -119 35 -66 35 l27 0 0 125 c0 125 0 126 -25 135 -14 5 -25 15 -25
21 0 13 103 3 133 -13z m-293 2 c13 -9 13 -12 -2 -21 -12 -7 -18 -22 -18 -49
0 -21 -5 -42 -11 -46 -8 -4 -8 -9 0 -17 6 -6 11 -28 11 -49 0 -25 6 -40 18
-47 29 -17 1 -35 -31 -20 -27 12 -30 18 -42 79 -4 19 -14 42 -22 51 -12 15
-11 17 7 22 15 4 20 12 19 34 -5 63 27 92 71 63z m-390 -325 c0 -3 -9 -19 -20
-37 -27 -44 -26 -110 2 -159 25 -45 18 -60 -19 -39 -77 44 -86 190 -15 247 10
9 20 9 33 2 11 -5 19 -12 19 -14z m5598 -27 c11 -11 82 -18 188 -17 57 0 88
-23 82 -63 -2 -17 -10 -24 -30 -26 -22 -3 -28 -9 -28 -28 0 -51 -61 -41 -70
12 -7 37 -41 40 -50 4 -7 -28 -32 -38 -102 -39 -39 -1 -50 3 -67 25 -23 30
-27 70 -10 108 16 33 64 47 87 24z m-5474 -39 c14 -11 26 -16 26 -10 0 13 96
15 104 3 3 -5 33 -9 68 -10 64 -2 81 -11 93 -49 5 -20 3 -23 -19 -23 -14 0
-28 5 -32 11 -10 17 -24 -10 -24 -48 0 -26 -4 -33 -19 -33 -10 0 -23 6 -29 13
-11 13 -12 17 -12 46 0 10 -8 21 -17 24 -10 2 -26 8 -35 12 -14 6 -17 -1 -20
-37 -3 -37 -6 -43 -23 -40 -11 2 -39 3 -62 3 -70 -3 -112 29 -113 84 0 69 59
97 114 54z m6095 -21 c8 -24 13 -27 33 -19 14 5 32 4 46 -2 15 -7 30 -7 47 1
37 17 47 15 77 -13 29 -26 53 -32 63 -15 9 14 45 3 73 -23 17 -16 22 -31 22
-73 0 -45 -3 -54 -26 -69 -25 -16 -30 -16 -80 0 -29 9 -57 14 -62 11 -4 -3
-21 3 -36 14 -26 16 -31 17 -64 3 -32 -13 -39 -13 -70 1 -22 11 -46 14 -68 10
-28 -5 -38 -2 -64 24 -46 46 -35 108 26 152 47 34 71 33 83 -2z m-5305 -14
c11 -4 16 -20 16 -53 1 -36 3 -42 11 -28 16 28 73 22 98 -9 12 -15 21 -35 21
-45 0 -16 -8 -19 -41 -19 -35 0 -40 -2 -29 -14 6 -8 21 -16 32 -18 12 -2 24
-9 26 -17 6 -19 -76 -6 -100 16 -11 10 -18 12 -18 5 0 -21 -87 -15 -109 7 -17
17 -21 17 -34 4 -18 -18 -82 -4 -103 24 -18 24 -18 74 1 100 13 18 22 21 48
17 18 -3 41 -16 53 -29 20 -22 21 -22 32 -4 7 11 23 19 37 19 20 0 25 5 25 25
0 26 7 29 34 19z m5756 -84 c14 -50 12 -87 -6 -126 -18 -38 -21 -40 -50 -20
-18 13 -20 24 -18 96 2 62 7 86 20 101 17 19 19 19 31 3 7 -10 18 -34 23 -54z
m567 -74 c-3 -28 -2 -69 2 -91 10 -52 5 -65 -25 -65 -16 0 -28 9 -37 28 -17
32 -28 130 -16 138 5 3 9 12 9 21 0 25 31 43 54 31 16 -9 18 -18 13 -62z
m-5169 -33 l19 -36 18 31 c16 26 23 30 44 25 39 -8 51 -31 51 -93 0 -62 -11
-80 -50 -80 -20 0 -31 9 -45 34 l-19 35 -18 -31 c-16 -25 -23 -29 -45 -23 -41
10 -53 29 -53 84 0 63 16 91 52 91 22 0 32 -8 46 -37z m-1797 -159 c11 -10 19
-12 24 -5 11 19 73 13 96 -10 19 -19 22 -20 39 -4 15 14 25 15 59 5 45 -12 55
-30 16 -30 -33 0 -32 -8 7 -40 30 -25 32 -29 20 -55 -12 -26 -15 -27 -55 -20
-41 7 -75 10 -129 13 -31 2 -68 37 -68 63 0 18 -54 52 -64 41 -3 -3 -6 -23 -6
-44 0 -39 -9 -45 -44 -32 -12 5 -16 21 -16 68 0 35 3 66 8 70 11 12 94 -2 113
-20z m643 -79 c0 -6 -13 -12 -29 -15 l-28 -5 36 -28 c32 -24 37 -26 37 -10 1
29 36 63 65 63 14 0 37 -11 50 -25 17 -16 25 -20 25 -10 0 19 80 21 98 3 7 -7
12 -38 12 -71 0 -49 -3 -58 -17 -55 -12 2 -17 14 -17 48 -1 33 -5 45 -16 45
-10 0 -17 -14 -20 -45 -3 -25 -8 -44 -12 -42 -5 1 -12 2 -18 2 -5 0 -10 7 -10
15 0 20 -10 19 -25 -1 -16 -22 -69 -10 -93 21 -18 22 -19 22 -30 4 -12 -19
-62 -26 -96 -13 -28 11 -17 24 19 24 40 0 46 16 11 30 -67 25 -48 92 22 81 20
-4 37 -11 36 -16z m-1219 -160 c16 -15 25 -35 25 -56 0 -18 7 -40 16 -50 15
-16 15 -20 0 -41 -9 -12 -16 -33 -16 -46 0 -55 -36 -77 -80 -50 -19 12 -19 13
1 34 28 30 31 150 5 189 -31 47 7 63 49 20z m4241 -200 c16 -25 17 -25 34 -7
14 15 26 17 61 12 32 -4 43 -10 40 -20 -18 -73 -19 -85 -5 -112 22 -42 2 -68
-53 -68 -45 0 -70 24 -60 59 3 14 -4 16 -49 13 -50 -4 -54 -2 -59 21 -4 14 -3
36 1 49 4 13 7 29 5 36 -8 43 59 56 85 17z m-4201 -219 c14 -10 26 -11 44 -5
27 11 87 -5 94 -24 3 -9 8 -9 18 1 23 21 109 11 109 -13 0 -7 -10 -16 -22 -19
-23 -6 -23 -6 5 -27 55 -42 27 -96 -45 -85 -24 4 -61 6 -82 6 -57 -1 -92 17
-111 56 -19 41 -50 61 -59 38 -3 -9 -6 -27 -6 -40 0 -18 -5 -24 -23 -24 -13 0
-28 5 -35 12 -12 12 -16 95 -6 122 8 21 92 22 119 2z m525 -11 c10 -12 10 -19
2 -27 -8 -8 -8 -17 0 -31 13 -24 3 -154 -13 -174 -14 -16 -81 -17 -97 -1 -10
10 -6 15 20 24 31 10 33 13 36 67 3 54 2 57 -28 72 -35 18 -31 35 7 35 19 0
24 4 19 16 -13 34 30 48 54 19z m124 -61 c24 -9 19 -21 -10 -31 l-27 -9 27
-17 c26 -17 26 -17 35 6 14 37 35 49 75 41 20 -3 41 -14 47 -23 7 -12 12 -13
15 -3 8 18 84 15 106 -5 14 -12 18 -31 18 -75 0 -56 -1 -59 -22 -56 -20 3 -23
10 -26 56 -4 63 -22 60 -22 -4 0 -40 -2 -44 -25 -44 -16 0 -25 6 -25 15 0 17
-16 20 -25 5 -10 -16 -77 -11 -97 7 -14 13 -21 14 -30 5 -14 -14 -77 -16 -97
-3 -19 13 -4 31 26 31 l25 0 -31 29 c-35 32 -35 34 -21 62 11 19 51 26 84 13z
m854 -106 c7 -7 12 -32 12 -56 0 -26 4 -41 10 -37 6 3 10 26 10 51 0 41 2 45
23 42 17 -2 23 -11 25 -37 l3 -34 20 32 c17 28 24 32 56 29 42 -4 59 -28 19
-28 -36 0 -54 -44 -30 -71 10 -11 26 -19 36 -19 11 0 18 -5 15 -12 -5 -15 -65
-12 -84 4 -7 6 -13 19 -13 29 0 10 -4 21 -10 24 -6 4 -10 -7 -10 -24 0 -30 -2
-31 -41 -31 -67 0 -79 12 -79 79 0 70 11 86 38 59z m-2078 -78 c11 -11 20 -31
20 -45 0 -13 5 -35 11 -49 9 -18 9 -33 1 -53 -6 -15 -13 -45 -17 -65 -6 -39
-29 -54 -65 -43 -23 7 -25 32 -5 59 19 26 19 116 0 162 -8 20 -12 40 -9 45 9
16 43 10 64 -11z m4669 -206 c2 -2 -1 -23 -7 -47 -9 -33 -8 -52 1 -76 15 -41
1 -65 -41 -69 -35 -4 -77 30 -68 55 3 8 6 39 6 68 0 68 16 86 68 78 20 -3 39
-7 41 -9z m4166 -449 c45 -1 151 -14 178 -21 35 -10 39 -41 11 -84 l-27 -40
-76 1 c-42 1 -105 -2 -141 -6 -59 -6 -66 -5 -78 14 -6 12 -13 39 -14 60 -2 51
42 96 82 85 14 -5 43 -9 65 -9z m-8780 -110 c10 -29 12 -30 70 -30 33 0 70 6
82 13 28 16 50 15 60 -2 15 -24 57 -40 113 -40 48 -1 56 -4 67 -26 7 -14 13
-46 13 -71 0 -43 -3 -48 -31 -59 -25 -11 -40 -11 -80 -1 -26 7 -53 10 -59 6
-16 -10 -77 14 -85 33 -5 13 -8 14 -15 3 -9 -15 -65 -18 -184 -10 -80 6 -106
27 -106 88 0 45 11 61 70 101 54 36 72 35 85 -5z m935 -112 c0 -29 3 -34 12
-25 15 15 80 16 96 0 9 -9 17 -7 35 10 29 28 63 29 70 2 3 -12 14 -20 27 -20
30 0 22 -34 -8 -38 -19 -3 -23 -9 -20 -35 4 -42 38 -49 55 -12 6 14 7 27 2 30
-5 3 -3 15 4 25 8 14 23 20 49 20 53 0 68 -20 68 -92 l0 -61 -102 8 c-55 4
-107 9 -114 12 -14 5 -24 36 -24 75 0 51 -19 39 -22 -14 l-3 -53 -55 2 c-30 2
-83 4 -116 6 -71 3 -91 16 -100 62 -7 41 19 91 53 100 13 3 23 12 23 20 0 21
31 35 52 24 12 -7 18 -21 18 -46z m649 -90 c8 -15 12 -16 22 -5 18 17 69 15
91 -5 13 -12 22 -13 29 -6 15 15 91 4 107 -15 6 -9 12 -32 12 -52 0 -39 -20
-65 -55 -72 -12 -2 -20 -11 -20 -23 0 -13 -8 -21 -22 -23 -20 -3 -23 1 -23 27
0 30 -1 31 -48 31 -54 0 -76 16 -87 63 -5 17 -14 27 -25 27 -10 0 -21 8 -25
18 -7 16 -8 15 -15 -3 -5 -11 -9 -35 -9 -53 -1 -29 -4 -33 -23 -30 -20 3 -23
10 -26 57 -4 76 -1 81 57 81 37 0 53 -4 60 -17z m1221 -98 c0 -8 7 -15 15 -15
8 0 15 7 15 15 0 8 5 15 11 15 6 0 9 -7 5 -15 -6 -17 29 -39 50 -31 8 3 14 12
14 21 0 8 5 15 10 15 6 0 10 -7 8 -16 -5 -26 19 -27 27 -2 7 22 7 22 12 3 3
-11 13 -25 22 -32 15 -11 15 -12 -1 -13 -19 0 -26 -40 -8 -40 6 0 10 -4 10
-10 0 -5 -7 -10 -15 -10 -9 0 -15 -9 -15 -25 0 -14 -4 -25 -10 -25 -5 0 -10
11 -10 25 0 14 -4 25 -10 25 -5 0 -10 -11 -10 -25 0 -16 -6 -25 -16 -25 -12 0
-15 7 -11 25 3 17 -1 28 -12 34 -24 12 -41 2 -41 -25 0 -14 -6 -24 -14 -24 -9
0 -14 9 -13 24 3 35 -17 37 -21 3 -4 -33 -22 -26 -22 8 0 13 -5 27 -10 30 -6
4 -4 12 6 22 11 11 12 19 5 26 -15 15 -14 27 4 27 9 0 12 6 9 15 -4 8 -1 15 5
15 6 0 11 -7 11 -15z m-2807 -72 c5 -27 8 -28 70 -28 39 0 70 5 80 14 18 14
67 8 67 -9 0 -18 65 -41 91 -32 58 21 99 -18 99 -94 0 -68 -10 -71 -174 -62
-45 3 -62 9 -76 26 -16 19 -19 20 -31 6 -11 -13 -25 -15 -74 -10 -33 4 -79 6
-103 6 -63 -1 -82 8 -98 45 -19 46 -1 104 39 123 16 8 31 20 34 28 3 8 19 14
38 14 27 0 33 -4 38 -27z m927 -72 c5 -11 10 -31 10 -46 0 -25 1 -25 24 -10
20 14 31 14 66 5 38 -10 44 -9 62 9 24 27 29 26 62 -4 15 -14 31 -25 37 -25
20 0 7 -30 -16 -36 -19 -5 -25 -13 -25 -34 0 -37 26 -47 50 -18 13 17 15 27 8
36 -16 18 19 52 54 52 45 0 68 -31 68 -94 0 -30 -5 -58 -10 -61 -13 -8 -194 5
-210 15 -7 4 -18 32 -25 61 l-13 54 -1 -52 c-1 -51 -2 -52 -35 -58 -18 -4 -51
-2 -72 4 -22 6 -62 11 -90 11 -58 0 -72 11 -81 64 -7 43 16 83 52 92 15 4 25
13 25 24 0 32 44 40 60 11z m650 -121 c19 -19 22 -19 44 -5 22 15 30 14 74 -1
9 -4 44 -7 77 -8 l60 -1 9 -38 c14 -54 -1 -90 -42 -102 -19 -5 -31 -14 -28
-21 6 -17 -20 -38 -39 -30 -9 3 -14 15 -11 34 3 28 2 28 -46 28 -41 -1 -53 3
-69 23 -10 13 -19 32 -19 42 0 10 -6 19 -14 19 -7 0 -19 7 -26 15 -18 22 -30
9 -30 -35 0 -37 -19 -58 -41 -44 -10 6 -12 127 -2 137 15 15 83 7 103 -13z
m1233 -101 c6 -23 27 -17 27 7 0 8 5 12 11 9 6 -4 8 -13 5 -21 -4 -10 4 -14
29 -14 24 0 35 5 35 15 0 8 5 15 10 15 6 0 10 -7 8 -16 -5 -26 19 -27 27 -2 7
22 7 22 12 3 9 -36 43 -47 43 -15 0 11 7 20 15 20 8 0 15 -8 15 -17 0 -10 7
-31 15 -47 17 -32 19 -56 6 -56 -11 0 -21 25 -21 51 0 10 -4 19 -10 19 -6 0
-10 -27 -10 -60 0 -33 -4 -60 -10 -60 -6 0 -9 24 -9 55 2 58 -3 71 -20 60 -14
-8 -14 -35 -1 -35 6 0 10 -4 10 -10 0 -5 -7 -10 -15 -10 -9 0 -15 -9 -15 -25
0 -14 -4 -25 -10 -25 -5 0 -10 11 -10 25 0 14 -4 25 -10 25 -5 0 -10 -11 -10
-25 0 -16 -6 -25 -15 -25 -10 0 -15 10 -15 29 0 29 -14 42 -37 33 -7 -2 -13
-15 -13 -28 0 -14 -6 -24 -14 -24 -9 0 -14 9 -13 24 3 34 -17 37 -21 4 -4 -37
-22 -36 -22 1 0 16 -6 31 -12 33 -9 3 -7 10 6 23 18 18 18 19 0 32 -18 13 -18
14 3 19 13 4 20 11 16 20 -3 8 -1 14 5 14 5 0 12 -9 15 -21z m-2813 -78 c5
-22 11 -24 70 -26 37 0 76 4 90 12 34 18 48 16 60 -7 6 -11 17 -20 25 -20 7 0
15 -5 17 -11 3 -9 13 -9 40 0 51 17 84 2 97 -46 26 -92 -2 -132 -82 -118 -23
4 -59 6 -80 6 -20 -1 -47 4 -59 10 -12 7 -78 13 -151 15 -150 4 -160 6 -175
40 -21 46 -15 83 21 116 17 16 39 36 47 44 24 23 73 14 80 -15z m3727 -27 c17
-5 21 -12 18 -33 -6 -49 -16 -61 -48 -61 -37 0 -30 -10 15 -19 24 -5 34 -13
36 -29 5 -36 -13 -50 -55 -43 l-38 6 -3 70 c-4 100 13 125 75 109z m343 -14
c0 -11 5 -20 10 -20 6 0 10 7 10 15 0 8 7 15 16 15 8 0 12 -5 8 -11 -3 -6 0
-15 7 -20 25 -16 47 -10 52 14 l4 22 8 -22 c9 -27 35 -31 36 -5 0 13 2 12 9
-5 5 -13 14 -23 20 -23 5 0 10 -4 10 -10 0 -5 -7 -10 -15 -10 -18 0 -20 -26
-2 -34 9 -3 7 -9 -5 -19 -10 -8 -18 -24 -18 -36 0 -11 -4 -21 -10 -21 -5 0
-10 14 -10 30 0 17 -4 30 -10 30 -5 0 -10 -11 -10 -25 0 -14 -4 -25 -10 -25
-5 0 -10 11 -10 24 0 14 -4 28 -10 31 -15 9 -12 25 5 25 8 0 15 6 15 14 0 17
-24 28 -45 20 -18 -7 -20 -30 -4 -40 8 -5 6 -10 -5 -16 -9 -5 -16 -21 -16 -35
0 -15 -3 -23 -7 -19 -5 4 -8 17 -8 29 0 11 -6 22 -12 24 -8 3 -13 -5 -13 -21
0 -14 -4 -26 -10 -26 -5 0 -10 10 -10 23 0 13 -6 29 -12 35 -10 10 -10 15 1
21 8 5 12 15 9 22 -7 19 -5 35 5 32 4 -2 7 6 7 17 0 11 5 20 10 20 6 0 10 -9
10 -20z m-3134 -55 c6 -43 8 -45 23 -30 20 18 54 19 83 4 16 -9 24 -7 42 10
26 25 54 27 63 5 3 -8 16 -20 29 -25 31 -11 30 -27 -1 -39 -29 -11 -35 -57 -9
-67 20 -8 62 36 44 47 -9 6 -9 12 -1 29 9 16 21 21 49 21 57 0 65 -11 70 -84
4 -64 4 -65 -22 -72 -15 -3 -44 -3 -64 1 -20 4 -54 7 -75 6 -57 -2 -74 12 -85
71 l-10 53 -1 -48 c-1 -58 -20 -69 -96 -56 -27 4 -73 8 -102 8 -59 1 -83 23
-83 77 0 34 33 84 56 84 8 0 18 8 21 18 8 21 23 32 45 32 12 0 19 -12 24 -45z
m652 -96 c7 -19 9 -19 21 -5 18 21 70 20 93 -1 14 -13 21 -14 30 -5 21 21 85
15 102 -10 33 -46 11 -123 -37 -130 -14 -2 -23 -11 -25 -26 -5 -37 -46 -26
-50 13 -3 29 -4 30 -49 26 -39 -3 -49 0 -64 20 -10 13 -19 34 -19 47 0 14 -6
22 -18 22 -10 0 -23 5 -30 12 -13 13 -19 1 -24 -47 -2 -22 -9 -31 -25 -33 -22
-3 -23 0 -23 61 0 35 3 67 7 70 3 4 28 7 55 7 40 0 50 -4 56 -21z m1222 -83
c0 -26 20 -28 30 -4 l9 23 7 -22 c10 -37 64 -43 64 -7 0 8 5 14 10 14 6 0 10
-7 8 -16 -5 -26 19 -27 27 -2 7 22 7 22 12 3 3 -11 12 -25 21 -31 13 -10 13
-11 -2 -17 -19 -7 -21 -33 -3 -41 8 -3 7 -8 -5 -16 -10 -6 -18 -20 -18 -30 0
-10 -4 -22 -10 -25 -6 -4 -10 7 -10 24 0 17 -4 31 -10 31 -5 0 -10 -11 -10
-25 0 -16 -6 -25 -15 -25 -10 0 -15 10 -15 29 0 29 -14 42 -37 33 -7 -2 -13
-15 -13 -28 0 -15 -6 -24 -15 -24 -11 0 -14 7 -9 25 5 19 2 25 -10 25 -10 0
-16 -9 -16 -25 0 -14 -4 -25 -10 -25 -5 0 -10 13 -10 29 0 16 -6 31 -12 34 -9
3 -7 9 6 19 17 14 17 15 1 32 -17 16 -17 17 3 23 13 3 19 10 15 19 -3 8 0 14
6 14 6 0 11 -6 11 -14z m2110 -190 c0 -19 7 -26 29 -31 31 -7 51 -39 51 -85 0
-41 -25 -62 -69 -58 l-36 3 -3 98 c-2 82 0 97 13 97 9 0 15 -9 15 -24z m304
-66 c13 -12 -3 -30 -27 -31 -15 0 -17 -2 -7 -6 8 -3 23 -12 33 -21 9 -8 17
-13 18 -11 0 2 2 12 4 22 6 30 26 47 56 47 33 0 62 -36 57 -72 -2 -19 -8 -22
-30 -20 -16 1 -28 -2 -28 -8 0 -5 8 -10 19 -10 21 0 45 -23 34 -33 -3 -4 -20
-7 -36 -7 -34 0 -67 24 -67 49 -1 10 -7 5 -16 -11 -16 -30 -36 -34 -79 -18
-31 12 -24 30 11 30 30 0 31 12 2 25 -26 11 -36 58 -18 81 12 14 55 10 74 -6z
m188 -57 c4 -63 28 -71 28 -9 0 45 14 66 31 49 6 -6 31 -8 58 -5 52 5 81 -13
81 -49 0 -26 -30 -37 -42 -15 -14 26 -28 9 -28 -35 0 -28 -5 -42 -17 -46 -9
-4 -18 -2 -20 4 -2 5 -26 8 -58 5 -51 -4 -55 -3 -64 21 -6 14 -9 48 -7 74 4
57 3 53 20 53 11 0 16 -14 18 -47z m-5254 -204 c30 1 65 -5 82 -14 22 -12 35
-13 49 -5 11 5 31 10 46 10 22 0 25 -3 19 -25 -4 -17 1 -33 15 -51 25 -32 15
-57 -26 -71 -48 -16 -62 -7 -56 34 5 28 3 35 -8 31 -8 -3 -14 -14 -13 -24 0
-21 -25 -23 -79 -9 -15 4 -55 2 -89 -5 -53 -10 -66 -9 -99 5 -35 16 -37 19
-28 44 6 14 10 27 10 29 -1 1 -1 13 -1 26 0 30 19 37 80 29 25 -3 69 -5 98 -4z
m636 -49 c4 -5 32 -6 62 -3 44 5 55 3 60 -11 4 -11 0 -22 -11 -30 -14 -10 -15
-15 -5 -21 8 -5 21 3 37 24 20 25 32 31 63 31 73 0 81 -12 56 -82 -11 -32 -11
-39 0 -49 19 -15 18 -54 -2 -73 -19 -19 -107 -22 -122 -3 -5 6 -12 23 -14 37
-2 16 -9 24 -18 22 -21 -5 -35 -5 -130 4 -126 10 -130 13 -130 78 0 47 4 57
27 76 22 17 35 20 72 14 25 -3 50 -10 55 -14z m776 -10 c12 -8 12 -11 -2 -27
-14 -16 -29 -68 -28 -98 1 -37 15 -93 27 -107 13 -15 12 -18 -5 -27 -40 -22
-72 11 -72 73 0 23 -6 38 -17 45 -17 9 -17 10 0 28 9 11 17 33 17 49 0 32 16
58 40 67 22 8 23 8 40 -3z m6948 -19 c10 -5 47 -12 82 -16 36 -3 73 -8 83 -11
10 -3 25 0 33 7 12 9 17 10 23 1 9 -14 86 -42 117 -42 19 0 24 -5 24 -24 0
-32 -23 -50 -47 -38 -25 14 -102 24 -208 28 -148 6 -144 4 -169 56 -14 27 -14
30 7 38 29 12 35 12 55 1z m828 -100 c-4 -5 10 -5 31 0 28 6 42 4 54 -7 9 -8
20 -14 25 -13 5 1 30 -1 57 -5 40 -7 47 -12 47 -30 0 -13 -2 -25 -5 -28 -10
-10 -65 5 -65 18 0 8 -4 14 -10 14 -5 0 -10 -4 -10 -8 0 -14 -157 -7 -175 8
-18 15 -19 32 -3 48 14 14 62 17 54 3z m1214 -60 c122 -14 132 -17 163 -53 25
-29 27 -40 25 -93 l-3 -60 -58 -3 c-32 -2 -64 1 -70 6 -7 5 -30 15 -52 21 -43
13 -78 27 -140 57 -31 15 -41 25 -43 48 -6 53 37 102 78 90 8 -2 53 -8 100
-13z m373 -22 c37 -19 52 -21 140 -15 98 6 99 6 142 -24 26 -18 53 -48 66 -75
22 -44 22 -45 4 -85 -10 -22 -21 -40 -24 -41 -3 0 -15 -2 -26 -4 -19 -4 -58 2
-175 25 -30 6 -84 16 -120 20 -153 21 -150 19 -150 103 0 31 7 45 40 77 23 22
45 40 51 40 5 0 29 -10 52 -21z m667 -70 c19 -6 62 -13 95 -15 80 -5 85 -5
120 -2 23 2 32 -2 42 -24 12 -23 18 -26 47 -21 32 5 34 3 51 -40 16 -43 16
-47 0 -81 -13 -27 -22 -35 -34 -30 -9 3 -20 6 -26 5 -48 -8 -225 -8 -285 0
-163 22 -232 38 -242 53 -16 24 -8 96 13 117 46 46 142 62 219 38z m-11124
-34 c10 -25 63 -46 86 -34 46 25 108 -17 108 -73 0 -69 -54 -112 -114 -90 -17
6 -48 9 -68 6 -51 -9 -88 28 -88 85 0 22 -4 43 -10 46 -6 4 -4 17 5 35 13 25
24 31 68 39 4 0 10 -6 13 -14z m11700 -50 c5 -11 16 -13 44 -9 24 4 57 0 89
-11 28 -9 54 -14 59 -11 5 3 16 -4 26 -15 17 -20 18 -20 37 -3 17 15 33 16
166 9 82 -4 167 -8 191 -9 30 -1 46 -6 53 -18 7 -12 22 -18 48 -18 20 0 46 -6
56 -14 14 -10 25 -11 37 -5 19 10 194 7 204 -4 12 -12 36 -8 54 8 16 14 20 13
46 -14 21 -21 41 -31 69 -33 36 -3 40 -6 46 -37 4 -19 5 -40 2 -47 -8 -21 -37
-26 -49 -10 -13 18 -34 21 -34 6 0 -5 -8 -10 -17 -10 -9 0 -25 -7 -35 -16 -14
-13 -21 -14 -32 -5 -9 7 -55 12 -120 13 -59 0 -109 4 -112 9 -3 5 -20 9 -38 9
-19 0 -39 7 -47 16 -17 21 -65 45 -73 36 -27 -27 -330 -34 -390 -8 -21 9 -48
16 -60 16 -12 0 -26 4 -31 9 -6 6 -29 6 -58 0 -31 -5 -56 -5 -67 1 -10 6 -28
10 -39 10 -12 0 -38 9 -58 20 -21 11 -49 20 -63 20 -19 0 -28 7 -36 28 -14 36
-8 52 20 52 12 0 33 11 46 25 26 28 58 33 66 10z m-10658 -37 c3 -22 9 -28 26
-28 13 0 29 -7 36 -15 9 -11 17 -12 30 -5 29 15 88 12 98 -5 7 -14 12 -14 44
-1 19 9 38 24 41 36 3 12 13 20 26 20 17 0 21 -6 21 -35 0 -32 2 -35 24 -29
20 5 27 0 39 -22 14 -27 14 -27 26 -6 6 12 21 22 33 22 24 0 23 -11 -12 -105
-27 -74 -45 -95 -82 -95 -33 0 -37 20 -8 38 21 13 27 47 10 57 -5 3 -10 17
-10 30 0 13 -4 27 -10 30 -6 4 -10 -11 -10 -38 0 -32 -5 -47 -16 -51 -28 -11
-69 -6 -92 9 -16 12 -27 13 -41 5 -31 -16 -70 -12 -88 9 -15 18 -19 19 -46 4
-33 -16 -96 -10 -98 10 -7 54 -5 165 3 180 15 28 52 18 56 -15z m-464 7 c12
-12 20 -13 35 -5 31 16 69 12 91 -10 19 -19 22 -19 45 -4 17 11 35 14 60 10
l35 -7 0 -98 c0 -81 -3 -100 -16 -105 -31 -12 -44 -6 -44 19 0 20 -5 25 -24
25 -14 0 -27 4 -31 9 -3 6 -28 7 -54 4 -44 -5 -52 -3 -75 20 -14 14 -26 35
-26 45 0 13 -9 21 -25 24 -30 6 -35 2 -35 -33 0 -26 -15 -39 -46 -39 -19 0
-20 146 -1 153 28 12 96 6 111 -8z m1168 -109 c5 -8 11 -7 19 1 16 16 110 5
127 -15 9 -12 15 -13 24 -4 7 7 27 12 45 12 42 0 55 -24 51 -93 l-3 -52 -45 1
c-25 1 -79 5 -120 9 -41 4 -96 6 -122 6 -36 -2 -51 3 -67 20 -47 51 -6 148 56
133 16 -4 31 -12 35 -18z m-1697 -163 c4 -12 -1 -23 -14 -32 -37 -24 -23 -31
52 -25 59 5 75 4 86 -10 10 -12 18 -13 33 -5 11 6 36 8 57 4 20 -3 64 -6 98
-5 92 2 103 -7 103 -85 0 -78 -12 -88 -92 -78 -29 3 -77 6 -107 4 -44 -1 -59
3 -78 20 -12 13 -23 28 -23 35 0 17 -30 45 -41 39 -5 -4 -9 -17 -9 -31 0 -17
-8 -28 -26 -36 -23 -11 -28 -10 -41 7 -8 11 -12 30 -10 42 4 22 -8 52 -17 42
-3 -2 -8 -20 -11 -39 -7 -38 -19 -50 -51 -50 -24 0 -34 17 -34 59 0 15 -5 32
-12 39 -9 9 -6 21 12 54 13 24 31 48 39 55 25 19 78 16 86 -4z m1433 -125 c17
-17 15 -38 -3 -38 -8 0 -15 5 -15 10 0 6 -9 10 -21 10 -14 0 -25 -11 -35 -36
-8 -20 -13 -39 -10 -42 3 -3 6 -1 6 5 0 10 69 43 90 43 6 0 10 -11 10 -25 0
-30 11 -32 28 -5 8 14 23 20 47 20 43 0 46 -16 5 -25 -53 -12 -52 -78 1 -89
37 -7 29 -26 -11 -26 -21 0 -35 9 -51 32 l-23 32 -6 -24 c-5 -20 -13 -26 -43
-28 -47 -4 -52 -32 -6 -32 27 0 30 -2 19 -15 -7 -8 -25 -15 -40 -15 -21 0 -30
7 -40 29 -6 16 -9 38 -5 49 5 17 2 19 -15 15 -11 -3 -23 -9 -26 -14 -9 -16
-56 -10 -70 9 -7 9 -14 36 -14 59 0 35 5 46 26 60 25 16 28 16 58 -1 29 -17
31 -17 41 0 29 50 76 69 103 42z m392 -117 l0 -98 -44 -1 c-42 -1 -45 1 -51
28 -8 37 -18 38 -39 5 -19 -28 -59 -34 -82 -11 -16 17 -19 79 -4 107 8 13 21
19 46 19 28 0 37 -5 46 -27 7 -16 13 -30 15 -32 1 -2 12 8 24 22 11 15 29 27
40 27 12 0 19 7 19 18 0 15 17 42 27 42 2 0 3 -44 3 -99z m-1636 -164 c3 -13
19 -28 38 -36 18 -8 36 -16 39 -18 4 -2 22 12 40 32 44 47 74 44 75 -6 1 -49
13 -67 29 -45 7 9 28 19 47 22 28 5 39 1 58 -19 23 -24 26 -25 43 -9 12 11 36
17 67 17 27 0 55 6 61 13 17 16 46 15 56 -2 4 -7 18 -18 31 -25 29 -15 28 -29
-3 -41 -19 -7 -25 -17 -25 -40 0 -17 5 -30 13 -30 6 0 18 -4 26 -9 25 -16 -6
-41 -49 -41 -30 0 -39 5 -48 25 -7 14 -12 41 -12 60 0 39 -25 53 -60 35 -30
-16 -23 -54 10 -58 35 -5 46 -18 30 -37 -16 -20 -84 -20 -104 0 -12 13 -20 14
-37 4 -29 -15 -86 -14 -106 3 -12 10 -17 10 -20 1 -13 -38 -46 -63 -83 -63
-21 0 -41 4 -45 10 -6 10 29 50 45 50 14 0 12 94 -2 108 -17 17 -28 15 -28 -4
0 -9 -7 -31 -16 -50 -20 -41 -64 -58 -113 -44 -19 5 -52 7 -73 4 -26 -5 -45
-2 -62 10 -19 12 -31 14 -51 6 -59 -22 -105 -6 -89 31 8 17 7 31 -4 52 -13 26
-13 31 5 55 24 32 82 42 102 18 8 -10 23 -13 47 -9 22 4 34 2 34 -6 0 -19 16
-12 56 24 44 40 69 45 78 12z m154 -397 c7 -11 18 -20 26 -20 26 0 26 -29 1
-46 -28 -18 -34 -59 -10 -68 9 -3 15 0 15 9 0 30 34 84 60 95 28 12 72 1 85
-20 5 -7 11 -8 19 -1 15 12 74 17 102 8 14 -5 26 -1 39 13 21 24 50 26 59 5 3
-8 18 -20 33 -26 l28 -11 -33 -28 c-37 -31 -38 -64 -1 -75 39 -13 9 -55 -39
-55 -28 0 -45 26 -53 79 l-6 46 -2 -46 c-1 -39 -5 -48 -28 -58 -14 -7 -29 -8
-32 -4 -5 8 -99 12 -245 12 -36 0 -55 6 -71 21 -22 20 -25 21 -53 6 -18 -9
-33 -12 -37 -7 -6 10 -126 7 -143 -3 -6 -3 -23 -1 -39 6 -15 6 -51 10 -79 9
-43 -2 -55 1 -73 20 -33 36 -29 91 10 123 35 30 99 37 99 11 0 -13 4 -14 34
-1 32 13 67 12 91 -4 16 -10 162 -5 177 7 12 9 35 20 48 22 3 1 11 -8 18 -19z
m826 -29 c3 -4 -3 -16 -14 -26 -17 -15 -20 -31 -20 -107 0 -70 3 -90 15 -94
40 -16 -4 -51 -52 -42 -16 3 -18 16 -21 127 -2 82 1 128 9 137 13 15 75 19 83
5z m-664 -336 c0 -8 -4 -17 -10 -20 -5 -3 -10 -17 -10 -31 0 -14 -4 -33 -9
-42 -10 -18 2 -90 21 -125 12 -24 -7 -47 -38 -47 -27 0 -44 31 -44 79 0 15 -5
32 -10 37 -7 7 -5 32 7 80 14 52 24 71 42 80 27 14 51 8 51 -11z m916 -496 c8
-6 14 -29 14 -51 0 -30 -6 -45 -27 -64 -16 -13 -37 -33 -49 -44 -11 -11 -24
-17 -27 -13 -13 13 -7 151 6 165 18 17 66 21 83 7z m792 -442 c1 -48 -2 -95
-7 -105 -14 -26 -87 -28 -101 -2 -25 46 -1 140 35 140 8 0 22 14 30 31 27 51
40 31 43 -64z m122 8 c6 -7 10 -40 8 -72 l-3 -58 -52 -3 c-44 -3 -52 0 -58 17
-3 11 1 34 10 51 9 17 11 30 5 30 -16 0 -12 18 9 39 20 20 62 18 81 -4z m252
-18 c5 -6 7 -39 6 -72 l-3 -60 -47 -3 c-44 -3 -46 -2 -53 27 -3 17 -2 38 3 47
5 9 7 25 5 35 -8 30 16 52 51 45 16 -4 34 -12 38 -19z m384 -24 c7 -10 13 -36
13 -58 0 -50 -18 -75 -54 -75 -55 0 -81 61 -50 120 12 24 22 30 47 30 18 0 36
-7 44 -17z m764 -62 c0 -16 -5 -42 -10 -56 -8 -22 -15 -26 -35 -23 -14 3 -25
2 -25 -3 0 -4 15 -9 33 -11 27 -2 33 -8 35 -31 5 -41 -12 -57 -56 -50 -20 3
-40 11 -44 17 -11 16 0 156 13 172 6 8 29 14 50 14 36 0 39 -2 39 -29z m-3276
-103 c9 -12 16 -35 16 -51 0 -16 5 -37 10 -48 8 -14 7 -27 -5 -48 -8 -17 -15
-42 -15 -57 0 -32 -25 -64 -50 -64 -27 0 -29 9 -13 47 19 47 19 171 -1 191
-11 12 -12 19 -3 33 16 25 42 24 61 -3z"/>
</g>
</svg>
