<svg xmlns="http://www.w3.org/2000/svg" fill="none" viewBox="0 0 133 52"><path fill="#B2B7CC" d="M.006 15.308c-.023-3.135 0-3.518.384-3.902.294-.293.678-.406 1.152-.36.61.044 1.626.879 5.534 4.465 2.643 2.414 4.992 4.714 5.218 5.075.361.587.406 1.218.406 9.587l-.564.293c-.52.248-.655.158-2.508-1.534-1.084-.992-3.41-3.135-5.15-4.737C2.04 21.962 1.135 20.97.661 20.022c-.587-1.172-.61-1.398-.655-4.714ZM17.85 20.88c.249-.542 2.123-2.414 5.33-5.346C27.564 11.519 28.219 11 28.874 11c.542 0 .88.158 1.107.496.293.429.338 1.173.293 4.015-.067 3.045-.135 3.632-.564 4.511-.362.745-1.83 2.256-5.692 5.797-2.869 2.64-5.376 4.805-5.557 4.805-.18 0-.497-.158-.678-.339-.27-.27-.338-1.082-.338-4.466 0-3.406.067-4.24.406-4.94ZM2.558 29.586c.791-.744 1.74-1.601 2.101-1.85.362-.27.858-.496 1.13-.496.27.023 1.49.745 2.733 1.647 1.242.88 2.484 1.85 2.755 2.12.294.293.52.677.52.857 0 .18-2.146 2.3-4.766 4.67-3.84 3.518-4.88 4.375-5.466 4.42-.452.045-.881-.09-1.13-.338-.339-.361-.406-.835-.384-3.902 0-3.203.045-3.587.542-4.624.317-.654 1.152-1.715 1.965-2.504ZM18.934 31.03c.249-.203 1.491-1.15 2.801-2.098 1.31-.925 2.598-1.692 2.891-1.692.294 0 1.243.677 2.44 1.737 1.265 1.128 2.168 2.165 2.552 2.887.542 1.038.588 1.376.655 4.624.046 2.865 0 3.587-.293 3.993-.226.36-.565.518-1.085.518-.632.023-1.31-.518-5.398-4.218-2.869-2.616-4.743-4.466-4.834-4.804-.09-.406-.022-.677.271-.947Z"/><path fill="#B2B7CC" fill-rule="evenodd" d="M128.071 19.413c1.333.045 1.898.18 2.575.61.497.315 1.085.879 1.333 1.24.271.383.519 1.105.723 2.594h-.791c-.429 0-1.174.09-1.649.18-.768.135-.835.113-.835-.338 0-.294-.204-.722-.452-.97-.249-.248-.7-.451-1.017-.451-.316 0-.835.225-1.152.519-.406.36-.519.608-.384.902.091.225.588.564 1.085.721.497.18 1.513.542 2.258.813.768.27 1.74.857 2.214 1.308.7.654.903 1.037.994 1.827.068.564 0 1.376-.113 1.804a5.64 5.64 0 0 1-.723 1.421c-.248.339-.881.835-1.423 1.083-.519.27-1.513.541-2.191.609a7.18 7.18 0 0 1-2.485-.248c-.79-.226-1.49-.632-1.965-1.105-.384-.406-.835-1.015-.948-1.354-.136-.36-.249-.924-.249-1.985h1.514c1.49 0 1.536.023 1.807.677.18.384.564.79.903.902.361.136.904.18 1.242.113.362-.068.791-.338.972-.609.203-.316.271-.677.18-.925-.113-.225-.745-.609-1.423-.857-.677-.248-1.694-.609-2.258-.812-.565-.203-1.378-.722-1.83-1.173-.61-.586-.881-1.082-.994-1.827-.09-.586-.068-1.33.091-1.804.135-.429.564-1.106.971-1.512a6.594 6.594 0 0 1 1.536-1.082c.564-.248 1.287-.316 2.484-.27Zm-87.82-.113 3.095.068c2.914.09 3.162.135 4.54.79.971.473 1.739 1.06 2.258 1.691.43.541.972 1.466 1.175 2.075.226.587.407 1.602.407 2.256 0 .631-.136 1.692-.317 2.3-.225.745-.7 1.557-1.423 2.346-.655.722-1.535 1.444-2.213 1.76-1.017.45-1.468.519-7.567.519l.045-13.805Zm3.117 10.647c1.898 0 2.666-.158 3.163-.406.429-.226 1.016-.767 1.287-1.196.384-.564.52-1.082.52-2.007 0-.835-.159-1.466-.452-1.963-.249-.406-.79-.947-1.197-1.195-.497-.316-1.13-.451-2.033-.451h-1.288v7.218Zm11.068-10.602h3.388l.113 5.391 3.727-5.39h1.694c.926 0 1.74.09 1.785.18.067.09-.949 1.646-4.518 6.699l2.417 3.27c1.355 1.805 2.44 3.361 2.462 3.452 0 .09-.836.135-3.704.045l-3.863-5.3-.113 5.413h-3.388v-13.76Zm17.009-.022 3.365.135 4.811 13.647h-3.388l-3.162-9.474-3.05 9.474h-1.694c-.948 0-1.694-.068-1.694-.158s1.085-3.203 2.395-6.903l2.416-6.721Zm18.68.022v3.384h-3.84v10.376h-3.163V22.729l-3.953-.113-.067-1.33c-.046-.723-.023-1.467.045-1.625.113-.248 1.197-.316 10.977-.316Zm8.244 0 2.349 6.587c1.31 3.631 2.394 6.744 2.439 6.902.068.203-.361.27-3.388.158l-1.513-4.624c-1.31-4.06-1.536-4.556-1.74-4.06-.112.316-.813 2.413-2.89 8.82l-3.502-.023.768-2.076c.43-1.15 1.446-4.015 2.304-6.383a791.587 791.587 0 0 0 1.694-4.782c.181-.474.362-.519 3.479-.519Zm6.889 0h3.162v10.602h6.099v3.158h-9.261v-13.76Zm11.52 0h3.388v13.76h-3.388v-13.76Z" clip-rule="evenodd"/></svg>