<svg xmlns="http://www.w3.org/2000/svg" fill="none" viewBox="0 0 108 40"><path fill="url(#go_svg__a)" fill-rule="evenodd" d="M62.07 12.443c-1.222.325-2.46.654-3.894 1.024l-.086.023c-.701.188-.774.208-1.426-.544-.782-.887-1.356-1.46-2.45-1.981-3.284-1.616-6.464-1.147-9.435.782-3.545 2.293-5.37 5.682-5.318 9.904.052 4.17 2.92 7.61 7.038 8.184 3.544.469 6.516-.782 8.862-3.44.348-.426.667-.88 1.021-1.384l.386-.545h-10.06c-1.096 0-1.356-.678-.991-1.564.678-1.616 1.929-4.327 2.658-5.682.157-.313.522-.834 1.304-.834h16.774c.753-2.387 1.975-4.642 3.606-6.776C73.864 4.606 78.452 2 84.655.905c5.317-.939 10.322-.417 14.857 2.658 4.118 2.815 6.672 6.62 7.35 11.625.886 7.037-1.147 12.77-5.995 17.67-3.44 3.493-7.663 5.683-12.51 6.673-.926.172-1.85.253-2.76.333-.475.041-.946.083-1.411.136-4.744-.104-9.07-1.46-12.72-4.587-2.565-2.218-4.333-4.943-5.212-8.116a21.954 21.954 0 0 1-2.188 3.528c-3.753 4.952-8.653 8.028-14.857 8.862-5.108.678-9.852-.313-14.022-3.44-3.858-2.92-6.047-6.777-6.62-11.573-.678-5.682.99-10.79 4.43-15.273C36.698 4.553 41.6 1.477 47.593.383c4.9-.886 9.592-.313 13.815 2.554 2.762 1.824 4.743 4.327 6.047 7.35.312.47.104.73-.522.886-1.827.464-3.331.864-4.863 1.27ZM8.08 12.11c-.21 0-.261-.104-.157-.26l1.095-1.408c.104-.156.365-.26.573-.26h18.61c.209 0 .26.156.157.312l-.887 1.356c-.104.156-.364.313-.52.313l-18.872-.053ZM.207 16.905c-.208 0-.26-.104-.156-.26l1.095-1.408c.104-.156.365-.26.573-.26h23.77c.21 0 .314.156.262.312l-.417 1.251c-.053.209-.261.313-.47.313l-24.657.052Zm12.461 4.486c-.104.157-.052.313.156.313l11.365.052c.156 0 .364-.156.364-.365l.105-1.25c0-.21-.105-.366-.313-.366H13.92c-.208 0-.417.157-.521.313l-.73 1.303Zm83.887-3.008c.01.176.021.36.037.558-.261 4.483-2.503 7.819-6.62 9.956-2.764 1.408-5.63 1.564-8.498.313-3.753-1.668-5.734-5.786-4.796-9.852 1.147-4.9 4.275-7.976 9.123-9.07 4.952-1.147 9.696 1.772 10.634 6.933.074.369.096.738.12 1.162Z"/><g clip-path="url(#go_svg__b)" filter="url(#go_svg__c)"><path fill="url(#go_svg__a)" d="M0 0h108v40H0V0"/></g><defs><linearGradient id="go_svg__a" x1="53.532" x2="53.532" y1="0" y2="40" gradientUnits="userSpaceOnUse"><stop stop-color="azure"/><stop offset=".453" stop-color="#C8E0FF"/><stop offset="1" stop-color="#7880AA"/></linearGradient><clipPath id="go_svg__b"><path fill-rule="evenodd" d="M62.07 12.443c-1.222.325-2.46.654-3.894 1.024l-.086.023c-.701.188-.774.208-1.426-.544-.782-.887-1.356-1.46-2.45-1.981-3.284-1.616-6.464-1.147-9.435.782-3.545 2.293-5.37 5.682-5.318 9.904.052 4.17 2.92 7.61 7.038 8.184 3.544.469 6.516-.782 8.862-3.44.348-.426.667-.88 1.021-1.384l.386-.545h-10.06c-1.096 0-1.356-.678-.991-1.564.678-1.616 1.929-4.327 2.658-5.682.157-.313.522-.834 1.304-.834h16.774c.753-2.387 1.975-4.642 3.606-6.776C73.864 4.606 78.452 2 84.655.905c5.317-.939 10.322-.417 14.857 2.658 4.118 2.815 6.672 6.62 7.35 11.625.886 7.037-1.147 12.77-5.995 17.67-3.44 3.493-7.663 5.683-12.51 6.673-.926.172-1.85.253-2.76.333-.475.041-.946.083-1.411.136-4.744-.104-9.07-1.46-12.72-4.587-2.565-2.218-4.333-4.943-5.212-8.116a21.954 21.954 0 0 1-2.188 3.528c-3.753 4.952-8.653 8.028-14.857 8.862-5.108.678-9.852-.313-14.022-3.44-3.858-2.92-6.047-6.777-6.62-11.573-.678-5.682.99-10.79 4.43-15.273C36.698 4.553 41.6 1.477 47.593.383c4.9-.886 9.592-.313 13.815 2.554 2.762 1.824 4.743 4.327 6.047 7.35.312.47.104.73-.522.886-1.827.464-3.331.864-4.863 1.27ZM8.08 12.11c-.21 0-.261-.104-.157-.26l1.095-1.408c.104-.156.365-.26.573-.26h18.61c.209 0 .26.156.157.312l-.887 1.356c-.104.156-.364.313-.52.313l-18.872-.053ZM.207 16.905c-.208 0-.26-.104-.156-.26l1.095-1.408c.104-.156.365-.26.573-.26h23.77c.21 0 .314.156.262.312l-.417 1.251c-.053.209-.261.313-.47.313l-24.657.052Zm12.461 4.486c-.104.157-.052.313.156.313l11.365.052c.156 0 .364-.156.364-.365l.105-1.25c0-.21-.105-.366-.313-.366H13.92c-.208 0-.417.157-.521.313l-.73 1.303Zm83.887-3.008c.01.176.021.36.037.558-.261 4.483-2.503 7.819-6.62 9.956-2.764 1.408-5.63 1.564-8.498.313-3.753-1.668-5.734-5.786-4.796-9.852 1.147-4.9 4.275-7.976 9.123-9.07 4.952-1.147 9.696 1.772 10.634 6.933.074.369.096.738.12 1.162Z" clip-rule="evenodd"/></clipPath><filter id="go_svg__c"><feTurbulence baseFrequency="1" type="fractalNoise"/><feColorMatrix in="colorNoise" values=".33 .33 .33 0 0 .33 .33 .33 0 0 .33 .33 .33 0 0 0 0 0 1 0"/><feComposite in2="SourceGraphic" operator="in" result="monoNoise"/><feBlend in="SourceGraphic" in2="monoNoise" mode="multiply"/></filter></defs></svg>