<svg xmlns="http://www.w3.org/2000/svg" fill="none" viewBox="0 0 87 52"><path fill="#B3B7CC" fill-rule="evenodd" d="M13.507 26.9c0 1.86-.133 2.988-.531 3.852-.333.73-1.064 1.527-1.728 1.992-.997.665-2.26.997-3.323.997-.73 0-4.651-.266-5.382-4.251a5.274 5.274 0 0 1-.068-.564c-.016-.183-.033-.374-.065-.565h3.788c0 .133 0 .332.066.465.266 1.129.997 1.86 1.86 1.86.998 0 1.463-.532 1.728-1.13.2-.531.266-1.129.266-1.727V15.807h3.522L13.507 26.9Zm1.798-.067c0-3.321 2.458-6.842 6.977-6.842 4.518 0 6.977 3.52 6.977 6.908 0 3.387-2.459 6.908-6.977 6.908-4.519-.067-6.977-3.587-6.977-6.975Zm3.056.066c0 2.258 1.728 3.985 3.854 3.985 2.127 0 3.855-1.66 3.855-3.985s-1.728-3.985-3.855-3.985c-2.126-.067-3.854 1.66-3.854 3.985Zm15.946-11.092h-3.123V33.41h2.99v-1.86c.664 1.262 2.26 2.258 4.319 2.258 3.588 0 6.645-2.59 6.645-6.974 0-4.583-3.455-6.841-6.512-6.841-1.196 0-3.057.398-4.32 1.992V15.807Zm3.787 7.04c2.26 0 3.92 1.86 3.92 3.986 0 2.059-1.395 4.052-3.986 4.052-2.326 0-3.854-1.86-3.854-4.052 0-2.06 1.528-3.985 3.92-3.985Zm15.083 10.495H50.12l-4.85-13.019h3.256l3.123 9.1 3.123-9.1h3.256l-4.851 13.019Zm9.438-17.535h-3.123v2.79h3.123v-2.79Zm0 4.583h-3.123V33.41h3.123V20.39Zm3.453 2.39h-2.193v-2.39h2.193v-4.517h3.123v4.517h2.26v2.39h-2.26v10.628h-3.123V22.781Zm12.292 8.37c-1.794 0-3.655-1.196-3.788-3.255h10.433c.266-2.324-.332-4.317-1.927-5.978-1.196-1.262-2.924-1.992-4.85-1.992-3.921 0-6.845 3.254-6.845 6.974 0 3.653 2.924 6.908 6.91 6.908 1.33 0 2.658-.399 3.722-1.13 1.13-.73 2.06-1.793 2.658-3.254h-3.19c-.598 1.063-1.595 1.727-3.123 1.727Zm-.133-8.568c2.326-.067 3.588 1.727 3.721 2.922h-7.376c.067-1.262 1.33-2.922 3.655-2.922Z" clip-rule="evenodd"/></svg>