<svg xmlns="http://www.w3.org/2000/svg" fill="none" viewBox="0 0 117 52"><g fill="#B2B7CC" clip-path="url(#metrikus_svg__a)"><path d="M29.475 34.328c.25-.25.655-.246.931-.025a5.906 5.906 0 0 0 7.345 0c.276-.221.68-.225.931.025l.376.375a.6.6 0 0 1-.019.885c-2.859 2.415-7.075 2.415-9.923 0-.27-.228-.268-.635-.018-.885l.377-.375ZM38.682 25.135c-.25.25-.655.247-.93.026a5.906 5.906 0 0 0-7.346 0c-.276.22-.68.224-.931-.026l-.376-.374a.6.6 0 0 1 .019-.886c2.859-2.415 7.075-2.415 9.923 0a.6.6 0 0 1 .018.885l-.377.375ZM40.013 28.823h-11.88a.64.64 0 0 0-.641.64V30c0 .353.287.64.641.64h11.88a.64.64 0 0 0 .64-.64v-.537a.64.64 0 0 0-.64-.64ZM107.397 34.328c.25-.25.655-.246.931-.025a5.906 5.906 0 0 0 7.345 0c.276-.221.681-.225.931.025l.376.375c.25.25.252.657-.019.885-2.859 2.415-7.075 2.415-9.923 0-.27-.228-.268-.635-.018-.885l.377-.375ZM116.603 25.137c-.25.249-.653.246-.93.026-2.142-1.71-5.211-1.71-7.345-.002-.276.22-.681.224-.931-.026l-.376-.374c-.25-.25-.252-.658.019-.886 2.859-2.415 7.075-2.415 9.923 0 .27.229.268.635.018.885l-.378.377ZM9.908 24.522c-.251.25-.655.245-.939.034a4.361 4.361 0 0 0-2.607-.861c-.95 0-1.858.296-2.605.855-.285.213-.692.22-.944-.032l-.372-.37c-.25-.25-.252-.659.023-.881a6.15 6.15 0 0 1 3.898-1.375c1.44 0 2.8.483 3.899 1.375.275.223.273.63.022.88l-.375.375ZM20.48 24.522c-.251.25-.655.245-.939.034a4.361 4.361 0 0 0-2.607-.861c-.95 0-1.858.296-2.605.855-.286.213-.692.22-.944-.032l-.372-.37c-.25-.25-.252-.659.022-.881a6.15 6.15 0 0 1 3.899-1.375c1.44 0 2.8.483 3.899 1.375.275.223.273.63.022.88l-.376.375ZM92.438 34.763c.25-.25.654-.245.938-.034a4.36 4.36 0 0 0 2.607.86c.95 0 1.858-.296 2.606-.855.285-.212.691-.219.943.032l.372.371c.251.25.253.658-.022.881a6.151 6.151 0 0 1-3.899 1.375 6.15 6.15 0 0 1-3.898-1.375c-.275-.223-.273-.63-.023-.88l.376-.375ZM62.072 23.14c.003.355-.286.64-.639.69a4.286 4.286 0 0 0-2.448 1.233 4.388 4.388 0 0 0-1.236 2.445c-.052.35-.334.637-.688.637h-.539c-.354 0-.645-.287-.609-.638a6.105 6.105 0 0 1 1.777-3.723 6.139 6.139 0 0 1 3.738-1.771c.351-.036.638.252.64.603l.005.524ZM1.347 28.056h-.54a.64.64 0 0 0-.64.64v7.993c0 .353.287.64.64.64h.54a.64.64 0 0 0 .641-.64v-7.993a.64.64 0 0 0-.641-.64ZM11.917 28.056h-.539a.64.64 0 0 0-.641.64v7.993c0 .353.287.64.641.64h.54a.64.64 0 0 0 .64-.64v-7.993a.64.64 0 0 0-.64-.64ZM75.74 14.026h-.538a.64.64 0 0 0-.641.64v22.023c0 .353.287.64.641.64h.539a.64.64 0 0 0 .641-.64V14.665a.64.64 0 0 0-.641-.64ZM22.488 28.056h-.538a.64.64 0 0 0-.642.64v7.993c0 .353.287.64.642.64h.538a.64.64 0 0 0 .642-.64v-7.993a.64.64 0 0 0-.642-.64ZM85.21 37.547l.381-.38a.638.638 0 0 0 0-.904l-5.67-5.652a.643.643 0 0 0-.906 0l-.381.38a.638.638 0 0 0 0 .904l5.67 5.652c.25.25.656.25.906 0ZM85.592 22.161l-.381-.38a.643.643 0 0 0-.907 0l-5.67 5.652a.638.638 0 0 0 0 .905l.381.38c.25.25.657.25.907 0l5.67-5.652a.638.638 0 0 0 0-.905ZM51.712 21.968h-8.018a.64.64 0 0 0-.641.64v.536c0 .354.287.64.641.64h8.018a.64.64 0 0 0 .641-.64v-.537a.64.64 0 0 0-.64-.64ZM90.968 21.968h-.538a.64.64 0 0 0-.642.64V30.6c0 .353.287.64.642.64h.538a.64.64 0 0 0 .642-.64v-7.994a.64.64 0 0 0-.642-.64ZM101.539 21.968H101a.64.64 0 0 0-.641.64V30.6c0 .353.287.64.641.64h.539a.641.641 0 0 0 .642-.64v-7.994a.641.641 0 0 0-.642-.64ZM47.98 25.959h-.54a.64.64 0 0 0-.641.639v10.078c0 .353.287.64.641.64h.54a.64.64 0 0 0 .64-.64V26.598a.64.64 0 0 0-.64-.64ZM108.298 27.298l-.27.466a.638.638 0 0 0 .235.873l6.555 3.773a.642.642 0 0 0 .876-.234l.269-.465a.639.639 0 0 0-.234-.874l-6.555-3.773a.642.642 0 0 0-.876.234ZM67.76 21.968h-.538a.64.64 0 0 0-.641.64v14.08c0 .354.287.64.641.64h.539a.64.64 0 0 0 .641-.64v-14.08a.64.64 0 0 0-.641-.64ZM47.98 15.816h-.54a.64.64 0 0 0-.641.64v2.685c0 .353.287.64.641.64h.54a.64.64 0 0 0 .64-.64v-2.686a.64.64 0 0 0-.64-.64ZM57.074 30.32h-.538a.64.64 0 0 0-.642.639v5.73c0 .353.287.64.642.64h.538a.64.64 0 0 0 .642-.64v-5.73a.64.64 0 0 0-.642-.64ZM67.48 16.353c.65 0 1.18-.527 1.18-1.176 0-.65-.53-1.177-1.18-1.177-.653 0-1.181.527-1.181 1.177s.528 1.176 1.18 1.176Z"/></g><defs><clipPath id="metrikus_svg__a"><path fill="#fff" d="M0 0h117v52H0z"/></clipPath></defs></svg>