<svg xmlns="http://www.w3.org/2000/svg" fill="none" viewBox="0 0 98 52"><mask id="tyler-tech_svg__a" width="98" height="34" x="0" y="9" maskUnits="userSpaceOnUse" style="mask-type:luminance"><path fill="#fff" d="M98 9H0v34h98V9Z"/></mask><g fill="#B2B7CC" mask="url(#tyler-tech_svg__a)"><path d="M41.432 18.088v-4.773h3.393v4.774h2.805v2.746h-2.805v8.107c0 .785.391.981 1.24.981.521 0 1.043-.13 1.565-.261v2.877c-.913.13-1.761.196-2.675.196-2.544 0-3.523-1.243-3.523-3.335v-8.5h-2.023v-2.746l2.023-.066ZM48.87 34.826c.521.131.913.131 1.435.131 1.174 0 1.827-.327 2.283-1.111.326-.654.587-1.112.587-1.7 0-.523-.26-1.112-.456-1.7l-3.85-12.293h3.458l2.35 8.827h.064l2.48-8.827h3.393l-4.568 14.385c-1.5 4.12-2.74 5.23-5.546 5.23-.848 0-1.24-.065-1.63-.13v-2.812ZM65.441 12.466h-3.393v20.008h3.393V12.466ZM70.858 25.87c.065 3.008 1.37 4.12 3.001 4.12 1.631 0 2.349-.72 3.197-1.7l2.48 1.569c-1.305 2.026-3.263 2.942-6.003 2.942-3.72 0-6.068-2.877-6.068-7.454s2.349-7.454 6.263-7.454c3.785 0 5.873 3.139 5.873 6.604v1.438h-8.743v-.065Zm5.546-2.354c-.066-1.961-1.11-3.138-2.74-3.138-1.632 0-2.676 1.177-2.741 3.138h5.48ZM81.559 32.473V18.09h3.131v2.484h.066c.848-1.7 2.022-2.68 4.436-2.811v3.661h-.978c-1.697 0-3.197 1.962-3.197 2.354v8.762h-3.458v-.066ZM2.805 18.088a2.62 2.62 0 0 1 2.61 2.615c0 1.439-1.174 2.681-2.61 2.681a2.69 2.69 0 0 1-2.675-2.68c0-1.374 1.175-2.616 2.675-2.616ZM7.242 22.6a2.62 2.62 0 0 1 2.61 2.615 2.62 2.62 0 0 1-2.61 2.616 2.62 2.62 0 0 1-2.61-2.616 2.62 2.62 0 0 1 2.61-2.615ZM11.81 27.111c1.435 0 2.61 1.177 2.61 2.681 0 1.439-1.175 2.68-2.61 2.68-1.436 0-2.61-1.176-2.61-2.68-.066-1.438 1.109-2.68 2.61-2.68ZM11.81 36.134a2.62 2.62 0 0 1 2.61 2.615c0 1.439-1.175 2.68-2.61 2.68-1.436 0-2.61-1.176-2.61-2.68-.066-1.438 1.109-2.615 2.61-2.615ZM16.247 31.623a2.69 2.69 0 0 1 2.675 2.681c0 1.439-1.175 2.616-2.675 2.616a2.62 2.62 0 0 1-2.61-2.616c0-1.504 1.174-2.68 2.61-2.68ZM20.813 27.111a2.69 2.69 0 0 1 2.675 2.681c0 1.439-1.174 2.68-2.675 2.68a2.649 2.649 0 0 1-2.675-2.68c0-1.438 1.175-2.68 2.675-2.68ZM11.81 18.088a2.62 2.62 0 0 1 2.61 2.615c0 1.439-1.175 2.681-2.61 2.681-1.436 0-2.61-1.177-2.61-2.68-.066-1.374 1.109-2.616 2.61-2.616ZM16.247 13.577c1.435 0 2.675 1.177 2.675 2.615 0 1.439-1.175 2.616-2.675 2.616a2.62 2.62 0 0 1-2.61-2.616 2.62 2.62 0 0 1 2.61-2.615ZM20.813 18.088c1.436 0 2.675 1.177 2.675 2.615 0 1.439-1.174 2.681-2.675 2.681a2.649 2.649 0 0 1-2.675-2.68c0-1.374 1.175-2.616 2.675-2.616ZM25.316 22.6a2.62 2.62 0 0 1 2.61 2.615 2.62 2.62 0 0 1-2.61 2.616c-1.435 0-2.675-1.177-2.675-2.616 0-1.438 1.175-2.615 2.675-2.615ZM29.817 27.111c1.436 0 2.61 1.177 2.61 2.681 0 1.439-1.174 2.68-2.61 2.68a2.69 2.69 0 0 1-2.675-2.68c0-1.438 1.175-2.68 2.675-2.68ZM20.813 9.065c1.436 0 2.675 1.177 2.675 2.616 0 1.438-1.174 2.615-2.675 2.615-1.5 0-2.675-1.177-2.675-2.615 0-1.373 1.175-2.616 2.675-2.616ZM57.286 37.18v-1.372h.587v1.373h.979v.523h-.979v3.008c0 .196.13.326.457.326.196 0 .326 0 .522-.065v.458c-.065.065-.326.065-.652.065-.653 0-.914-.13-.914-.72v-3.072h-.718v-.523h.718ZM62.767 40.515c-.261.457-.653.98-1.632.98-.913 0-1.826-.653-1.826-2.157 0-1.373.717-2.158 1.696-2.158.848 0 1.566.589 1.566 1.896v.393h-2.74c0 .915.587 1.569 1.24 1.569.521 0 .913-.262 1.174-.72l.522.197Zm-.653-1.57c0-.784-.391-1.307-.978-1.307-.718 0-1.11.523-1.11 1.308h2.088ZM66.094 38.424c-.13-.523-.522-.85-.979-.85-.717 0-1.174.588-1.174 1.7 0 1.111.457 1.7 1.174 1.7.522 0 .849-.196 1.175-.785l.456.196c-.391.72-.782 1.047-1.63 1.047-1.045 0-1.697-.785-1.697-2.158 0-1.373.652-2.158 1.696-2.158.849 0 1.24.523 1.501 1.177l-.522.13ZM68.052 35.546v2.224c.326-.393.783-.654 1.24-.654.587 0 1.24.327 1.24 1.242v3.073h-.588v-3.073c0-.523-.26-.72-.718-.72-.456 0-.913.328-1.174.654v3.139h-.587v-5.82h.587v-.065ZM72.097 37.182v.588c.327-.392.783-.654 1.24-.654.587 0 1.24.327 1.24 1.242v3.074h-.587v-3.074c0-.523-.261-.719-.718-.719-.457 0-.913.327-1.175.654v3.139h-.587v-4.185h.587v-.065ZM77.121 41.496c-1.174 0-1.696-.981-1.696-2.158s.587-2.158 1.696-2.158c1.11 0 1.697.98 1.697 2.158 0 1.177-.588 2.158-1.697 2.158Zm0-3.858c-.718 0-1.174.588-1.174 1.7 0 1.111.456 1.7 1.174 1.7s1.175-.589 1.175-1.7c-.066-1.112-.522-1.7-1.175-1.7ZM80.189 35.546H79.6v5.82h.588v-5.82ZM82.733 41.496c-1.175 0-1.697-.981-1.697-2.158s.587-2.158 1.697-2.158c1.109 0 1.696.98 1.696 2.158 0 1.177-.587 2.158-1.697 2.158Zm0-3.858c-.718 0-1.175.588-1.175 1.7 0 1.111.457 1.7 1.174 1.7.718 0 1.175-.589 1.175-1.7-.065-1.112-.457-1.7-1.174-1.7ZM88.67 37.639c-.261 0-.522 0-.653.13.13.131.327.458.327.85 0 .85-.718 1.439-1.566 1.439a2.01 2.01 0 0 1-.718-.13c-.261.065-.326.195-.326.392 0 .196.13.326.326.326 2.022 0 2.61.327 2.61 1.177 0 .654-.588 1.112-1.892 1.112-1.175 0-1.827-.327-1.827-1.046 0-.458.26-.589.717-.85-.326-.066-.522-.327-.522-.589 0-.392.261-.523.588-.719-.392-.327-.588-.72-.588-1.177 0-.85.718-1.438 1.566-1.438.457 0 .783.13 1.044.261.261-.196.588-.327.914-.392v.654Zm-2.023 3.596c-.913 0-1.174.392-1.174.72 0 .326.195.522 1.37.522.718 0 1.24-.196 1.24-.588 0-.458-.392-.654-1.436-.654Zm.065-3.596c-.652 0-.978.457-.978.98 0 .524.456.981 1.044.981.652 0 .978-.457.978-.915 0-.654-.326-1.046-1.044-1.046ZM89.517 41.43h.588v-4.184h-.588v4.184Zm0-5.23h.588v-.72h-.588v.72ZM94.281 40.515c-.26.457-.652.98-1.63.98-.914 0-1.828-.653-1.828-2.157 0-1.373.653-2.158 1.697-2.158.848 0 1.566.589 1.566 1.896v.393h-2.74c0 .915.586 1.569 1.239 1.569.522 0 .913-.262 1.174-.72l.522.197Zm-.652-1.57c0-.784-.392-1.307-.979-1.307-.718 0-1.044.523-1.11 1.308h2.089ZM95.325 40.319c.26.392.652.654 1.174.654.653 0 .914-.327.914-.72 0-1.046-2.48-.523-2.414-2.026 0-.72.587-1.177 1.37-1.112.522 0 1.174.327 1.435.72l-.391.392c-.327-.393-.588-.589-1.11-.589-.522 0-.783.262-.783.589 0 .915 2.415.457 2.415 2.027 0 .784-.718 1.242-1.436 1.242-.652 0-1.305-.262-1.696-.785l.522-.392ZM25.315 32.67c.13 0 .327 0 .327-.196 0-.197-.13-.197-.261-.197h-.261v.393h.195Zm-.195.719h-.13v-1.242h.521c.261 0 .392.13.392.327 0 .196-.13.327-.261.327l.326.523h-.196l-.326-.523h-.261v.588h-.065Zm1.109-.654c0-.523-.392-.915-.848-.915-.457 0-.849.392-.849.915s.392.916.849.916c.456 0 .848-.393.848-.916Zm.13 0c0 .589-.456 1.046-1.044 1.046a1.032 1.032 0 0 1-1.044-1.046c0-.588.457-1.046 1.044-1.046.588 0 1.044.458 1.044 1.046Z"/></g></svg>