<svg xmlns="http://www.w3.org/2000/svg" fill="none" viewBox="0 0 149 52"><g clip-path="url(#united_svg__a)"><path fill="#B2B7CC" fill-rule="evenodd" d="M149 13v25.996h-5.401c1.144-2.988 1.399-6.682.59-9.921-.973-4.113-3.673-8.024-7.5-10.439-3.617-2.297-8.211-3.199-12.726-2.272l-1.039.255V13H149Zm-18.898 4.076c-1.387-.765-3.21-.876-4.844-.597l.576.066.082-.04c.757-.056 1.556-.03 2.262.126-.231.063-.63.192-.909.307.159.06.361.16.498.25.3-.11.93-.276 1.237-.337.274.08.978.405 1.415.724-.519.055-1.224.157-1.793.288.134.117.248.256.35.407a16.03 16.03 0 0 1 2.056-.219c.353.304.642.671.838 1.051-.767-.05-1.787-.038-2.411.03.064.111.152.396.19.567.776-.033 2.041.024 2.571.1.174.418.275.868.315 1.338-.886-.174-1.929-.32-2.744-.36.009.262-.002.512-.026.757.969.1 1.909.275 2.818.509a6.748 6.748 0 0 1-.201 1.478 23.172 23.172 0 0 0-2.851-.795c-.097.4-.228.793-.399 1.17.955.318 1.898.733 2.801 1.18a8.36 8.36 0 0 1-.564 1.26c-.904-.507-1.836-1.003-2.757-1.395a13.32 13.32 0 0 1-.967 1.496 31.508 31.508 0 0 1 2.591 1.768c-.253.37-.617.813-.835 1.077a209.92 209.92 0 0 0-2.468-1.988c-.488.587-.905 1.025-1.52 1.5a38.64 38.64 0 0 1 2.128 2.376c-.287.3-.568.537-.906.77a61.205 61.205 0 0 1-1.962-2.53c-.664.52-1.07.801-1.748 1.15v.974l1.078 2.15a4.778 4.778 0 0 1-.758.387l-.321-.627v1.13c4.157-1.841 8.389-5.902 9.619-10.312.451-1.524.529-3.485-.208-4.906-.432-.935-1.305-1.807-2.233-2.28Zm-.62-.641c.15.048.294.112.437.175l.091.04.097-.018a7.965 7.965 0 0 1 2.498.856l-.244.002c-.336 0-.677.002-1.009.03.172.153.354.333.504.498.558-.01 1.099.001 1.631.037.529.386 1.066.904 1.366 1.439a17.586 17.586 0 0 0-2.224-.328c.098.225.198.456.282.697.842.123 1.675.276 2.487.48.268.554.471 1.136.559 1.752-.895-.318-1.813-.62-2.754-.811.024.303.026.614.028.921.97.28 1.917.605 2.836 1.02a7.151 7.151 0 0 1-.202 1.777c-.923-.46-1.865-.914-2.845-1.245-.125.548-.287 1.08-.478 1.598.941.482 1.873.972 2.763 1.551a7.897 7.897 0 0 1-.697 1.457c-.874-.596-1.748-1.176-2.66-1.68-.31.643-.704 1.302-1.169 1.903.812.638 1.644 1.303 2.427 2.008a9.504 9.504 0 0 1-.991 1.243c-.571-.6-1.526-1.456-2.32-2.123-.561.676-1.225 1.422-1.893 1.982.51.534 2.024 2.355 2.024 2.355-.302.301-.68.611-1.067.889 0 0-1.547-1.979-1.928-2.456-.915.724-1.646 1.23-2.717 1.797.424.721 1.477 2.675 1.477 2.675-.27.165-.553.32-.835.424-.497-.823-1.095-2.016-1.414-2.696-.308.169-.617.278-.617.278v3.558c3.224-1.045 6.195-2.892 8.709-5.565 2.292-2.477 4.104-5.152 4.642-8.347.43-2.548-.416-4.948-2.444-6.57-1.23-1.05-2.755-1.417-4.35-1.603Zm-1.073 1.696c-1.411-1.422-3.576-1.542-5.485-1.094v.173a6.941 6.941 0 0 1 1.39-.164c-.31.186-.607.412-.876.633.115.025.236.064.348.11.43-.307.847-.573 1.194-.762.451.004 1.033.088 1.413.24-.628.224-1.388.572-1.878.901.09.048.185.128.256.2a14.46 14.46 0 0 1 2.178-.918c.337.135.7.373.905.574-.908.214-1.778.451-2.653.807.084.099.177.25.22.342a22.773 22.773 0 0 1 2.846-.77c.178.19.391.493.5.776-1.074.111-2.3.298-3.128.533.052.139.084.274.106.404a22.227 22.227 0 0 1 3.238-.384c.097.314.152.65.154.995a21.88 21.88 0 0 0-3.341.078c0 .13-.018.388-.035.548 1.01-.03 2.138-.02 3.343.116a7.902 7.902 0 0 1-.227 1.111c-1.126-.256-2.152-.381-3.287-.456a3.253 3.253 0 0 1-.241.715c1.061.193 2.12.486 3.143.853a9.59 9.59 0 0 1-.484.966 23.397 23.397 0 0 0-3.016-1.115c-.147.297-.393.7-.639 1 .64.312 1.868 1.003 2.711 1.546a8.583 8.583 0 0 1-.666.795 32.007 32.007 0 0 0-2.509-1.792 9.21 9.21 0 0 1-.965.952v.102l2.035 2.16a7.979 7.979 0 0 1-.698.57l-1.337-1.706v3.01c2.066-1.21 4.157-3.194 5.333-5.297.959-1.684 1.685-3.964.756-5.9-.164-.299-.338-.59-.604-.852Zm6.079.022.601.073c.599.31 1.151.748 1.647 1.272l.069.075c.162.175.327.353.438.543-.166-.046-.329-.097-.493-.147h-.001c-.326-.1-.653-.2-.994-.273.174.271.297.536.424.846.572.164 1.139.361 1.694.558.356.674.616 1.397.74 2.163-.64-.32-1.283-.631-1.942-.89.051.376.065.761.051 1.134.724.33 1.536.773 2.038 1.095.019.528-.034 1.468-.19 2.067-.578-.42-1.41-.959-2.086-1.306a9.252 9.252 0 0 1-.598 1.899c.704.477 1.41.965 2.077 1.538a12.32 12.32 0 0 1-.75 1.628 39.632 39.632 0 0 0-2.056-1.65 12.083 12.083 0 0 1-1.452 2.248c.68.625 1.328 1.237 1.978 1.907-.318.46-.674.916-1.09 1.345a65.01 65.01 0 0 0-1.901-1.974c-.673.774-1.434 1.586-2.226 2.252.365.38 1.155 1.3 1.729 2.125l-.062.054c-.372.317-.722.617-1.096.89l-1.671-2.151c-1.032.803-2.128 1.464-3.224 2.061l.877 1.46h2.718c4.154-2.83 7.906-7.031 9.062-11.721.699-2.868.036-5.808-1.946-7.943-1.059-1.138-2.233-1.519-3.061-1.774.212.14.456.353.696.596Zm-11.563-.24v.502l.281-.195c.234.054.501.172.68.288a23.18 23.18 0 0 1-.175.102c-.268.156-.537.312-.783.48v.314c.401-.244.872-.529 1.245-.717.15.096.286.238.39.38-.538.215-1.289.58-1.639.764v.325c.598-.291 1.259-.582 1.887-.777.081.143.163.322.192.487-.668.13-1.442.41-2.075.655v.296c.67-.233 1.569-.468 2.159-.563.044.19.049.434.05.607-.888.085-1.486.188-2.207.333v.338c.643-.085 1.71-.163 2.172-.146a3.48 3.48 0 0 1-.185.682 19.657 19.657 0 0 0-1.989-.072c-.004 0-.004.451-.004.453.483.027 1.005.13 1.462.219h.003l.277.054a4.23 4.23 0 0 1-.313.608c-.401-.135-.992-.32-1.429-.39v.889c.281.126.69.328.828.418-.093.137-.278.36-.402.472-.187-.124-.426-.262-.426-.262v1.136c.47-.46.932-.944 1.299-1.454.91-1.308 1.627-3.005.974-4.64-.395-.898-1.354-1.461-2.272-1.585Zm15.23 2.505c.189.322.37.651.521.988l.724.333c.515.836.925 1.716 1.149 2.674l-.14-.087c-.354-.224-.714-.451-1.075-.646.065.434.079.826.09 1.283.459.32.937.658 1.381 1.051a10.97 10.97 0 0 1-.138 2.34 12.06 12.06 0 0 0-1.492-1.237c-.121.687-.371 1.465-.66 2.154.509.405 1.067.933 1.555 1.467a11.073 11.073 0 0 1-.771 1.743 22.407 22.407 0 0 0-1.569-1.551c-.33.64-1.001 1.677-1.589 2.474.538.55 1.035 1.124 1.527 1.7-.349.488-.748.953-1.159 1.404-.18-.207-.355-.416-.531-.624h-.001c-.311-.37-.621-.74-.954-1.096-.788.916-1.448 1.627-2.39 2.417a66.672 66.672 0 0 1 1.399 1.791h.475c.881-.78 1.731-1.659 2.502-2.547 1.901-2.32 3.405-4.8 3.93-7.679.568-3.02-.225-5.96-2.229-8.144l-.555-.208Zm1.901 1.512-.009.022c.869 1.066 1.56 2.21 1.917 3.481l-.007.014-.67-.506c.086.517.153.997.172 1.536.316.238.661.549.931.875.046.877.046 1.813-.105 2.674-.301-.399-.569-.689-1.039-1.156-.104.637-.344 1.643-.633 2.313.413.445.832 1.008 1.098 1.418a10.511 10.511 0 0 1-.772 1.832 29.52 29.52 0 0 1-.34-.447c-.233-.31-.464-.62-.8-1.014a21.327 21.327 0 0 1-1.702 2.661c.432.507.829 1.036 1.204 1.572-.355.498-.739.99-1.155 1.455-.307-.422-.63-.842-.952-1.26h-.001l-.001-.002-.001-.002-.264-.343-.049.057c-.554.644-1.115 1.297-1.789 1.886h3.2c2.06-2.385 3.555-5.024 4.165-8.008.63-3.007.132-6.189-1.81-8.456a7.555 7.555 0 0 1-.134-.152c-.141-.165-.289-.337-.454-.45Zm2.731 4.18c.125.575.178 1.05.251 1.805.237.257.521.694.521.694.03.88-.02 1.765-.204 2.673l-.486-.597a14.51 14.51 0 0 1-.657 2.464l.537.93a13.34 13.34 0 0 1-.763 1.945c-.07-.113-.138-.23-.206-.346-.128-.22-.255-.436-.39-.622a22.497 22.497 0 0 1-1.691 2.731l.752 1.209h.174c1.812-2.681 3.026-5.64 3.15-9.003.062-1.408-.381-2.635-.913-3.809l-.075-.074Zm1.438 4.823c-.023.165-.041.33-.059.494-.032.287-.064.571-.116.844l-.143-.195a13.915 13.915 0 0 1-.698 2.631l.223.617a17.466 17.466 0 0 1-.711 1.978 3.376 3.376 0 0 0-.322-.659 22.127 22.127 0 0 1-1.354 2.353h1.2a20.17 20.17 0 0 0 1.542-3.977c.315-1.292.602-2.671.443-4.086h-.005Zm.074 3.294c-.252 1.32-.707 2.945-1.088 4.105a2.893 2.893 0 0 1-.127-.275c-.18.36-.452.939-.452.939h.615c.53-1.247.904-3.047 1.052-4.769Zm-19.089 3.75c-.751.342-1.499.626-2.286.876v.14h2.854l-.568-1.015Zm6.249.192c-.105.075-.22.165-.345.263a9.172 9.172 0 0 1-.782.568h1.673l-.026-.04-.003-.004c-.09-.135-.364-.548-.517-.787Zm-29.762-15.112h2.917c3.197.004 4.495 1.34 4.495 3.763 0 2.488-1.334 3.753-4.495 3.758h-2.917v-7.521Zm-3.883-3.063V33.64h6.887c5.671-.004 8.454-2.562 8.454-6.838 0-4.047-2.506-6.802-8.454-6.809h-6.886Zm-7.525 2.99v-2.99H77.513V33.64h12.833v-2.97h-8.96v-2.494h7.54v-2.773h-7.54v-2.42h8.903Zm-19.545-2.99v3.09h-5.022V33.64h-3.893V23.084h-5.014v-3.09h13.929Zm-20.816 0h-3.96V33.64h3.96V19.994Zm-23.91 5.104 8.412 8.542h2.908V19.994h-3.626v8.182l-7.953-8.182h-3.368V33.64h3.628v-8.542ZM7.497 33.891c4.837 0 7.442-2.096 7.441-6.27v-7.627h-3.872v7.685c-.002 2.066-1.143 3.08-3.556 3.089-2.44.008-3.621-1.031-3.624-3.113v-7.66H0v7.65c0 4.16 2.647 6.246 7.497 6.246Z" clip-rule="evenodd"/></g><defs><clipPath id="united_svg__a"><path fill="#fff" d="M0 0h149v52H0z"/></clipPath></defs></svg>