<svg xmlns="http://www.w3.org/2000/svg" fill="none" viewBox="0 0 124 52"><path fill="#B2B7CC" fill-rule="evenodd" d="M48.617 13c.75 0 1.543.096 2.253.274.6.164 1.461.479 1.912.725.45.233 1.243.862 1.789 1.396.67.67 1.106 1.259 1.461 1.984.287.561.601 1.45.71 1.984.11.534.205 1.382.205 1.916 0 .52-.096 1.396-.205 1.916-.109.52-.423 1.423-.696 1.984-.369.753-.792 1.314-1.543 2.066-.779.78-1.284 1.163-2.063 1.52-.56.273-1.365.574-1.775.67-.41.096-1.31.178-1.98.178-.67 0-1.57-.082-1.98-.178-.41-.11-1.12-.356-1.57-.561-.451-.206-1.175-.643-1.626-.972-.437-.328-1.079-.972-1.406-1.423-.342-.452-.765-1.15-.943-1.546a9.932 9.932 0 0 1-.532-1.56c-.11-.48-.205-1.41-.205-2.094 0-.684.096-1.628.218-2.121.11-.493.437-1.314.71-1.848.315-.615.847-1.313 1.462-1.915.519-.534 1.324-1.163 1.775-1.396.45-.246 1.284-.561 1.844-.712.614-.164 1.488-.273 2.185-.287Zm-2.84 4.83c-.315.315-.71.89-.875 1.26-.26.574-.3.944-.314 2.189 0 1.327.041 1.587.355 2.258.191.41.56.971.82 1.231.259.26.71.602 1.01.753.369.178.915.287 1.707.315.997.055 1.27.014 1.898-.26a4.082 4.082 0 0 0 1.339-1.013c.45-.506.683-.944.887-1.642.233-.753.273-1.177.205-1.984-.04-.561-.177-1.328-.314-1.71-.15-.439-.478-.931-.928-1.383-.465-.451-.93-.766-1.38-.917-.382-.136-1.079-.232-1.57-.232-.546.013-1.147.123-1.57.287-.37.137-.943.52-1.27.849Zm73.102-4.638c.942.027 1.598.136 2.117.328.423.164 1.078.575 1.502.958.478.424.86.917 1.038 1.34.164.37.327.877.464 1.56h-2.39l-.205-.505a3.903 3.903 0 0 0-.478-.863c-.164-.191-.628-.492-1.038-.67-.6-.26-.901-.315-1.625-.26-.505.027-1.12.164-1.42.315-.3.15-.683.465-.847.684-.177.219-.355.684-.409 1.026-.055.342-.055.78 0 1 .041.204.286.588.532.875.232.274.683.602.984.725.3.137 1.283.452 2.185.726.901.273 1.925.615 2.294.766.355.164.928.547 1.284.876.341.314.737.82.874 1.122.191.397.259.875.259 1.779 0 .999-.068 1.354-.314 1.916-.178.383-.56.93-.86 1.217-.287.301-.902.712-1.352.93-.451.206-1.216.453-1.707.535-.629.095-1.202.095-1.981-.014-.641-.082-1.434-.301-1.912-.52-.45-.22-1.037-.575-1.297-.808a4.97 4.97 0 0 1-.847-1.08c-.204-.37-.423-1-.587-2.108h2.39l.068.452c.028.232.246.698.478 1.026.219.315.642.698.929.835.273.15.819.3 1.188.355.382.055 1.011.028 1.434-.054a2.793 2.793 0 0 0 1.284-.602c.286-.233.614-.602.71-.808.109-.219.205-.643.205-.958.013-.328-.028-.739-.082-.93-.055-.192-.26-.52-.465-.725a3.465 3.465 0 0 0-.833-.643c-.259-.137-1.338-.507-2.39-.822-1.051-.314-2.212-.711-2.594-.89-.369-.177-.888-.56-1.147-.848a5.031 5.031 0 0 1-.738-1.135c-.218-.507-.259-.835-.205-1.848.041-.89.137-1.382.342-1.779.164-.3.491-.752.751-1.012.246-.247.696-.602.997-.78.3-.178.887-.41 1.297-.52.519-.15 1.161-.206 2.117-.164ZM0 13.274h11.471v2.942l-6.828 9.852 6.828.069v3.284H0v-3.079l6.705-9.716L0 16.558v-3.284Zm22.328 19.65c.383.041.942.22 1.27.41.314.179.601.384.642.466.041.082-.095.328-.3.547-.219.233-.424.41-.478.41-.069 0-.273-.122-.478-.273-.273-.191-.588-.287-1.038-.273-.587 0-.738.068-1.134.479-.286.287-.464.629-.478.862-.013.205 0 .52.014.711.014.192.11.493.205.684.095.192.41.452.696.602.37.178.683.233 1.01.165.26-.041.67-.206 1.298-.657l.82.835-.342.355c-.19.192-.614.452-.956.575-.45.164-.846.205-1.502.137-.628-.055-1.038-.192-1.393-.438a3.901 3.901 0 0 1-.86-.848c-.232-.343-.383-.794-.437-1.341-.069-.616-.027-.986.15-1.437.123-.342.328-.74.464-.89.123-.15.424-.41.642-.575.232-.164.656-.355.956-.437.3-.069.86-.11 1.23-.069Zm19.939 0c.382.041.9.192 1.16.329.26.123.574.342.683.465.191.219.164.274-.614 1.054l-.478-.274c-.3-.178-.71-.287-1.134-.287-.573 0-.737.068-1.12.451-.245.233-.491.63-.546.849a2.43 2.43 0 0 0 0 .889c.055.26.26.643.464.835.192.205.601.41.902.465.3.055.696.055.887-.014.315-.123.342-.205.41-1.833h1.366v2.463l-.642.3a5.06 5.06 0 0 1-1.475.357c-.478.04-1.052-.014-1.366-.123-.3-.096-.75-.37-1.01-.589-.246-.233-.574-.657-.71-.93-.178-.343-.26-.808-.26-1.369 0-.616.096-1.04.314-1.464.164-.342.52-.766.779-.958a3.37 3.37 0 0 1 1.092-.52 4.07 4.07 0 0 1 1.297-.096Zm23.625 0c.383.041.874.178 1.093.288.232.11.519.314.655.438.137.123.246.3.232.396 0 .082-.177.288-.41.438-.41.274-.41.274-.846 0a2.194 2.194 0 0 0-.956-.273 2.56 2.56 0 0 0-.929.205 1.66 1.66 0 0 0-.614.616c-.11.232-.205.643-.205.93 0 .274.082.657.177.848.082.178.383.48.642.644.26.178.67.328.888.328.232 0 .656-.164 1.502-.711l.41.41c.341.356.382.465.26.67-.083.124-.397.356-.683.507-.315.15-.888.287-1.42.315-.738.04-1.011-.014-1.599-.301-.532-.26-.833-.534-1.133-1-.232-.369-.45-.902-.492-1.204-.054-.3-.013-.848.069-1.231.095-.397.341-.903.6-1.218.233-.287.629-.63.847-.739.232-.11.601-.26.82-.315.232-.055.723-.082 1.092-.04Zm23.83 0c.342.041.888.206 1.23.37.341.178.764.533.983.848.218.301.437.821.505 1.163.068.342.082.862.027 1.163a4.371 4.371 0 0 1-.314.958 3.585 3.585 0 0 1-.614.78 3.195 3.195 0 0 1-.888.575c-.287.123-.874.219-1.297.219-.465 0-1.01-.11-1.339-.26-.3-.137-.764-.479-1.037-.78-.342-.37-.533-.753-.656-1.286-.082-.41-.11-.972-.068-1.232.054-.26.205-.712.341-.985.15-.288.492-.684.765-.89.273-.219.778-.451 1.133-.547.342-.096.888-.137 1.23-.096Zm-1.843 2.217c-.11.233-.205.643-.205.89 0 .232.123.643.273.889.15.233.465.534.683.643.232.11.574.205.792.205.205 0 .574-.123.82-.273.232-.15.532-.507.655-.78.136-.342.191-.712.15-1.068-.054-.396-.218-.67-.56-.985-.396-.37-.6-.451-1.065-.451-.328 0-.751.109-.97.246-.204.123-.464.438-.573.684Zm16.661-2.217a4.33 4.33 0 0 1 1.16.315c.26.137.67.493.915.78.246.287.519.807.601 1.15.096.355.123.875.069 1.231-.041.342-.26.89-.465 1.218-.259.438-.587.725-1.12.999-.546.287-.942.383-1.433.383-.369 0-.915-.082-1.216-.178-.287-.082-.737-.342-1.01-.575-.274-.219-.601-.657-.738-.958-.136-.3-.246-.875-.246-1.3 0-.52.096-.957.328-1.436.219-.438.533-.821.888-1.054.314-.219.792-.438 1.079-.506.273-.083.819-.11 1.188-.069Zm-2.021 2.696c-.069.37-.014.684.177 1.122.205.465.396.67.792.835.314.137.683.191.983.137.314-.041.642-.247.929-.561.355-.397.437-.589.437-1.095 0-.342-.096-.794-.205-1.026-.109-.22-.382-.507-.614-.616-.219-.11-.656-.205-.97-.205-.451 0-.642.082-.997.451-.273.26-.478.643-.532.958Zm10.488-2.696c.382.041.901.192 1.16.329.26.123.574.342.683.465.191.219.164.274-.655 1.108l-.465-.3c-.3-.206-.669-.302-1.092-.316-.546 0-.738.069-1.147.452-.342.315-.506.589-.56.985-.041.356.014.726.15 1.068.123.273.355.602.533.711.164.11.546.247.846.288.314.054.683.027.861-.069.259-.137.3-.26.3-1.792h1.366v2.463l-.642.3a4.737 4.737 0 0 1-1.543.357c-.587.027-1.079-.014-1.434-.165-.301-.11-.779-.451-1.052-.752-.286-.315-.587-.725-.669-.93-.082-.22-.15-.726-.164-1.136 0-.534.082-.945.328-1.424.178-.37.546-.834.806-1.026a3.37 3.37 0 0 1 1.092-.52c.342-.096.915-.137 1.298-.096Zm-112.98.028 1.735.04c1.42.042 1.802.11 2.185.33.26.15.6.492.75.752.151.287.26.739.26 1.094 0 .356-.109.808-.26 1.081-.136.26-.504.589-.805.74-.328.177-.942.314-2.526.437v1.437H0l.027-5.911Zm1.339 3.174c1.229.014 1.543-.068 1.802-.273.273-.192.383-.397.383-.685 0-.287-.11-.492-.383-.684-.26-.205-.573-.287-1.092-.273h-.71v1.915Zm102.286-22.934c1.229.04 1.762.123 2.458.383.492.178 1.188.506 1.571.725.368.219.983.712 1.365 1.095a8.958 8.958 0 0 1 1.12 1.505c.246.452.437.903.451.999 0 .123-.342.164-1.27.164-1.243.014-1.257.014-1.421-.37-.095-.205-.45-.67-.792-1.026a5.674 5.674 0 0 0-1.297-.999c-.382-.191-1.093-.41-1.611-.506-.697-.123-1.148-.123-1.871 0-.533.096-1.298.329-1.707.534-.41.205-1.038.67-1.407 1.026-.355.37-.82 1.04-1.038 1.52a8.214 8.214 0 0 0-.546 1.668c-.082.452-.15 1.136-.15 1.506 0 .383.054 1.026.136 1.437.069.41.342 1.19.601 1.71.328.67.697 1.177 1.256 1.683.465.425 1.12.849 1.557 1.027.601.232 1.052.287 2.254.3 1.393 0 1.57-.027 2.376-.41.505-.246 1.106-.67 1.447-1.026.314-.342.67-.821 1.025-1.505h1.229c1.079 0 1.229.027 1.229.246 0 .123-.232.63-.519 1.108-.273.48-.861 1.204-1.298 1.601-.45.438-1.188.93-1.775 1.205-.532.26-1.311.533-1.707.615-.382.082-1.311.15-2.048.15-.765 0-1.666-.081-2.144-.218-.451-.11-1.216-.424-1.708-.67a8.915 8.915 0 0 1-1.584-1.123c-.382-.355-.956-1.053-1.27-1.546-.314-.493-.696-1.259-.846-1.71-.205-.575-.315-1.3-.355-2.395-.041-.944-.014-1.902.095-2.395.082-.452.41-1.341.71-1.984.437-.903.765-1.382 1.53-2.121.614-.602 1.297-1.122 1.857-1.396.492-.246 1.256-.534 1.707-.643.574-.15 1.284-.206 2.39-.164Zm-89.859.082h9.97v3.147H17.89v3.147h5.19v3.285h-5.19v3.42h5.872v3.148h-9.969V13.274Zm12.427 0h4.029c3.482 0 4.138.027 4.807.246.437.137 1.065.397 1.407.602.341.192.846.616 1.133.944.287.329.642.944.806 1.355.205.547.286 1.081.3 1.916 0 1.04-.04 1.259-.437 2.093-.246.507-.669 1.15-.97 1.437a5.62 5.62 0 0 1-1.256.849c-.41.178-.75.328-.778.342-.014 0 .737 1.327 1.666 2.942.928 1.615 1.734 3.052 1.775 3.188.069.22-.082.233-4.356.247l-1.639-3.024c-1.611-2.956-1.652-3.011-2.526-3.011v6.021h-3.96V13.274Zm3.96 7.252c2.868-.054 3.306-.123 3.592-.3a2.34 2.34 0 0 0 .601-.616c.15-.233.246-.644.246-1.068 0-.424-.096-.835-.246-1.067a2.102 2.102 0 0 0-.6-.602c-.288-.192-.752-.26-1.967-.301l-1.598-.041-.027 3.995Zm29.089-7.252h9.15v1.916h-6.965v5.2l5.667.068v1.779l-5.667.068v7.116h-2.185V13.274Zm13.724.068.069 14.3h5.462v1.78H70.74l-.014-7.992c-.013-4.393.028-8.02.096-8.074.068-.055.587-.082 2.171-.014Zm7.58-.068h2.185l.04 5.774c.028 5.707.042 5.789.356 6.473.164.37.478.848.683 1.067.19.22.6.52.9.67.342.179.93.316 1.503.357.533.027 1.257-.014 1.612-.096.355-.082.874-.315 1.16-.493.287-.191.67-.574.847-.862.191-.287.423-.848.519-1.259.123-.533.164-2.353.164-11.631h2.185v5.5c0 4.407-.041 5.707-.205 6.473-.11.52-.369 1.246-.574 1.615-.204.37-.655.917-.996 1.232-.328.3-.984.725-1.434.93-.451.22-1.27.452-1.844.534a7.336 7.336 0 0 1-2.048 0 7.5 7.5 0 0 1-1.98-.602c-.629-.315-1.148-.698-1.544-1.136-.314-.37-.696-.903-.847-1.204-.15-.301-.355-.985-.464-1.506-.164-.766-.205-2.093-.205-6.404l-.013-5.432ZM7.374 32.979h1.462c.805 0 1.72.068 2.02.15.301.096.738.356.97.589.233.232.478.643.533.903.055.26.055.725 0 1.026-.068.356-.26.698-1.024 1.437l.546.794c.287.424.533.82.546.89 0 .054-.327.095-1.434.109l-.519-.767c-.478-.697-.546-.752-1.597-.752v1.505H7.374V32.98Zm1.503 3.147c1.256-.054 1.68-.15 1.816-.273.15-.123.232-.397.232-.712 0-.383-.082-.575-.314-.725-.178-.123-.615-.205-1.024-.205h-.71v1.915Zm6.008-3.147h1.503v5.884h-1.503V32.98Zm11.882 0h1.365v5.884h-1.366V32.98Zm4.233 0h.574c.573.014.587.027 3.181 3.312l.041-3.312h1.393v5.884h-.587c-.573.014-.573 0-3.25-3.352l.014 3.352H31V32.98Zm17.617 0h5.053v1.232h-1.912v4.652h-1.366v-4.652h-1.775v-1.232Zm7.238 0h4.37v1.232H57.22v1.094h2.595v1.232H57.22v1.231h3.005v1.095h-4.37V32.98Zm14.475 0h1.366v2.326h2.458V32.98h1.502v5.884h-1.502v-2.326h-2.458v2.326H70.33V32.98Zm8.058 0h1.229l2.663 3.339.04-3.34h1.394v5.885h-.588c-.573.014-.573 0-3.25-3.352l.014 3.352h-1.502V32.98Zm16.66 0h1.366v4.79h2.868v1.094h-4.233V32.98Zm23.285 0 .723 1.259c.67 1.177.738 1.245.902.999.095-.15.423-.725 1.311-2.258h.614c.328 0 .628.041.669.11.028.054-.437.93-2.103 3.79v1.984h-1.365l-.014-.985c0-1 0-1-1.079-2.846-.587-1.013-1.051-1.889-1.01-1.944.027-.068.355-.11 1.352-.11Z" clip-rule="evenodd"/></svg>